<?xml version="1.0" encoding="utf-8"?>
<svg xmlns="http://www.w3.org/2000/svg" xmlns:xlink="http://www.w3.org/1999/xlink" width="2500" height="350" viewBox="0 0 10000 1400">
<defs>
  <clipPath id="clip560">
    <rect x="0" y="0" width="10000" height="1400"/>
  </clipPath>
</defs>
<path clip-path="url(#clip560)" d="
M0 1400 L10000 1400 L10000 2.27374e-13 L0 2.27374e-13  Z
  " fill="#ffffff" fill-rule="evenodd" fill-opacity="1"/>
<defs>
  <clipPath id="clip561">
    <rect x="2000" y="0" width="7001" height="1400"/>
  </clipPath>
</defs>
<path clip-path="url(#clip560)" d="
M408.651 1124.19 L2241.88 1124.19 L2241.88 94.4882 L408.651 94.4882  Z
  " fill="#ffffff" fill-rule="evenodd" fill-opacity="1"/>
<defs>
  <clipPath id="clip562">
    <rect x="408" y="94" width="1834" height="1031"/>
  </clipPath>
</defs>
<polyline clip-path="url(#clip562)" style="stroke:#000000; stroke-linecap:butt; stroke-linejoin:round; stroke-width:2; stroke-opacity:0.1; fill:none" points="
  448.841,1124.19 448.841,94.4882 
  "/>
<polyline clip-path="url(#clip562)" style="stroke:#000000; stroke-linecap:butt; stroke-linejoin:round; stroke-width:2; stroke-opacity:0.1; fill:none" points="
  1327.18,1124.19 1327.18,94.4882 
  "/>
<polyline clip-path="url(#clip562)" style="stroke:#000000; stroke-linecap:butt; stroke-linejoin:round; stroke-width:2; stroke-opacity:0.1; fill:none" points="
  2205.52,1124.19 2205.52,94.4882 
  "/>
<polyline clip-path="url(#clip560)" style="stroke:#000000; stroke-linecap:butt; stroke-linejoin:round; stroke-width:4; stroke-opacity:1; fill:none" points="
  408.651,1124.19 2241.88,1124.19 
  "/>
<polyline clip-path="url(#clip560)" style="stroke:#000000; stroke-linecap:butt; stroke-linejoin:round; stroke-width:4; stroke-opacity:1; fill:none" points="
  408.651,94.4882 2241.88,94.4882 
  "/>
<polyline clip-path="url(#clip560)" style="stroke:#000000; stroke-linecap:butt; stroke-linejoin:round; stroke-width:4; stroke-opacity:1; fill:none" points="
  448.841,1124.19 448.841,1105.3 
  "/>
<polyline clip-path="url(#clip560)" style="stroke:#000000; stroke-linecap:butt; stroke-linejoin:round; stroke-width:4; stroke-opacity:1; fill:none" points="
  1327.18,1124.19 1327.18,1105.3 
  "/>
<polyline clip-path="url(#clip560)" style="stroke:#000000; stroke-linecap:butt; stroke-linejoin:round; stroke-width:4; stroke-opacity:1; fill:none" points="
  2205.52,1124.19 2205.52,1105.3 
  "/>
<path clip-path="url(#clip560)" d="M415.169 1259.12 L422.808 1259.12 L422.808 1232.75 L414.498 1234.42 L414.498 1230.16 L422.761 1228.49 L427.437 1228.49 L427.437 1259.12 L435.076 1259.12 L435.076 1263.05 L415.169 1263.05 L415.169 1259.12 Z" fill="#000000" fill-rule="evenodd" fill-opacity="1" /><path clip-path="url(#clip560)" d="M454.521 1231.57 Q450.909 1231.57 449.081 1235.14 Q447.275 1238.68 447.275 1245.81 Q447.275 1252.92 449.081 1256.48 Q450.909 1260.02 454.521 1260.02 Q458.155 1260.02 459.96 1256.48 Q461.789 1252.92 461.789 1245.81 Q461.789 1238.68 459.96 1235.14 Q458.155 1231.57 454.521 1231.57 M454.521 1227.87 Q460.331 1227.87 463.386 1232.48 Q466.465 1237.06 466.465 1245.81 Q466.465 1254.54 463.386 1259.14 Q460.331 1263.73 454.521 1263.73 Q448.71 1263.73 445.632 1259.14 Q442.576 1254.54 442.576 1245.81 Q442.576 1237.06 445.632 1232.48 Q448.71 1227.87 454.521 1227.87 Z" fill="#000000" fill-rule="evenodd" fill-opacity="1" /><path clip-path="url(#clip560)" d="M467.01 1232.45 L473.217 1232.45 L473.217 1211.02 L466.465 1212.38 L466.465 1208.92 L473.179 1207.56 L476.978 1207.56 L476.978 1232.45 L483.185 1232.45 L483.185 1235.64 L467.01 1235.64 L467.01 1232.45 Z" fill="#000000" fill-rule="evenodd" fill-opacity="1" /><path clip-path="url(#clip560)" d="M1292.96 1259.12 L1300.59 1259.12 L1300.59 1232.75 L1292.28 1234.42 L1292.28 1230.16 L1300.55 1228.49 L1305.22 1228.49 L1305.22 1259.12 L1312.86 1259.12 L1312.86 1263.05 L1292.96 1263.05 L1292.96 1259.12 Z" fill="#000000" fill-rule="evenodd" fill-opacity="1" /><path clip-path="url(#clip560)" d="M1332.31 1231.57 Q1328.7 1231.57 1326.87 1235.14 Q1325.06 1238.68 1325.06 1245.81 Q1325.06 1252.92 1326.87 1256.48 Q1328.7 1260.02 1332.31 1260.02 Q1335.94 1260.02 1337.75 1256.48 Q1339.58 1252.92 1339.58 1245.81 Q1339.58 1238.68 1337.75 1235.14 Q1335.94 1231.57 1332.31 1231.57 M1332.31 1227.87 Q1338.12 1227.87 1341.17 1232.48 Q1344.25 1237.06 1344.25 1245.81 Q1344.25 1254.54 1341.17 1259.14 Q1338.12 1263.73 1332.31 1263.73 Q1326.5 1263.73 1323.42 1259.14 Q1320.36 1254.54 1320.36 1245.81 Q1320.36 1237.06 1323.42 1232.48 Q1326.5 1227.87 1332.31 1227.87 Z" fill="#000000" fill-rule="evenodd" fill-opacity="1" /><path clip-path="url(#clip560)" d="M1348.82 1232.45 L1362.08 1232.45 L1362.08 1235.64 L1344.25 1235.64 L1344.25 1232.45 Q1346.41 1230.21 1350.14 1226.45 Q1353.88 1222.67 1354.84 1221.58 Q1356.66 1219.53 1357.38 1218.12 Q1358.11 1216.69 1358.11 1215.31 Q1358.11 1213.07 1356.53 1211.66 Q1354.97 1210.25 1352.45 1210.25 Q1350.67 1210.25 1348.67 1210.87 Q1346.7 1211.49 1344.44 1212.75 L1344.44 1208.92 Q1346.73 1208 1348.73 1207.53 Q1350.72 1207.06 1352.38 1207.06 Q1356.74 1207.06 1359.34 1209.24 Q1361.93 1211.42 1361.93 1215.07 Q1361.93 1216.8 1361.27 1218.36 Q1360.63 1219.9 1358.92 1222.01 Q1358.45 1222.55 1355.93 1225.17 Q1353.41 1227.76 1348.82 1232.45 Z" fill="#000000" fill-rule="evenodd" fill-opacity="1" /><path clip-path="url(#clip560)" d="M2170.97 1259.12 L2178.61 1259.12 L2178.61 1232.75 L2170.3 1234.42 L2170.3 1230.16 L2178.56 1228.49 L2183.24 1228.49 L2183.24 1259.12 L2190.88 1259.12 L2190.88 1263.05 L2170.97 1263.05 L2170.97 1259.12 Z" fill="#000000" fill-rule="evenodd" fill-opacity="1" /><path clip-path="url(#clip560)" d="M2210.32 1231.57 Q2206.71 1231.57 2204.88 1235.14 Q2203.07 1238.68 2203.07 1245.81 Q2203.07 1252.92 2204.88 1256.48 Q2206.71 1260.02 2210.32 1260.02 Q2213.95 1260.02 2215.76 1256.48 Q2217.59 1252.92 2217.59 1245.81 Q2217.59 1238.68 2215.76 1235.14 Q2213.95 1231.57 2210.32 1231.57 M2210.32 1227.87 Q2216.13 1227.87 2219.19 1232.48 Q2222.26 1237.06 2222.26 1245.81 Q2222.26 1254.54 2219.19 1259.14 Q2216.13 1263.73 2210.32 1263.73 Q2204.51 1263.73 2201.43 1259.14 Q2198.38 1254.54 2198.38 1245.81 Q2198.38 1237.06 2201.43 1232.48 Q2204.51 1227.87 2210.32 1227.87 Z" fill="#000000" fill-rule="evenodd" fill-opacity="1" /><path clip-path="url(#clip560)" d="M2234.96 1220.5 Q2237.69 1221.09 2239.21 1222.93 Q2240.75 1224.77 2240.75 1227.48 Q2240.75 1231.64 2237.89 1233.91 Q2235.03 1236.19 2229.77 1236.19 Q2228 1236.19 2226.12 1235.83 Q2224.26 1235.49 2222.26 1234.8 L2222.26 1231.13 Q2223.84 1232.05 2225.72 1232.52 Q2227.61 1232.99 2229.66 1232.99 Q2233.23 1232.99 2235.09 1231.58 Q2236.97 1230.17 2236.97 1227.48 Q2236.97 1225 2235.22 1223.61 Q2233.49 1222.2 2230.39 1222.2 L2227.12 1222.2 L2227.12 1219.07 L2230.54 1219.07 Q2233.34 1219.07 2234.83 1217.96 Q2236.31 1216.84 2236.31 1214.73 Q2236.31 1212.57 2234.77 1211.42 Q2233.25 1210.25 2230.39 1210.25 Q2228.83 1210.25 2227.04 1210.59 Q2225.25 1210.93 2223.11 1211.65 L2223.11 1208.26 Q2225.27 1207.66 2227.15 1207.36 Q2229.05 1207.06 2230.73 1207.06 Q2235.05 1207.06 2237.57 1209.03 Q2240.09 1210.99 2240.09 1214.33 Q2240.09 1216.67 2238.76 1218.28 Q2237.42 1219.88 2234.96 1220.5 Z" fill="#000000" fill-rule="evenodd" fill-opacity="1" /><polyline clip-path="url(#clip562)" style="stroke:#000000; stroke-linecap:butt; stroke-linejoin:round; stroke-width:2; stroke-opacity:0.1; fill:none" points="
  408.651,1124.19 2241.88,1124.19 
  "/>
<polyline clip-path="url(#clip562)" style="stroke:#000000; stroke-linecap:butt; stroke-linejoin:round; stroke-width:2; stroke-opacity:0.1; fill:none" points="
  408.651,918.253 2241.88,918.253 
  "/>
<polyline clip-path="url(#clip562)" style="stroke:#000000; stroke-linecap:butt; stroke-linejoin:round; stroke-width:2; stroke-opacity:0.1; fill:none" points="
  408.651,712.312 2241.88,712.312 
  "/>
<polyline clip-path="url(#clip562)" style="stroke:#000000; stroke-linecap:butt; stroke-linejoin:round; stroke-width:2; stroke-opacity:0.1; fill:none" points="
  408.651,506.371 2241.88,506.371 
  "/>
<polyline clip-path="url(#clip562)" style="stroke:#000000; stroke-linecap:butt; stroke-linejoin:round; stroke-width:2; stroke-opacity:0.1; fill:none" points="
  408.651,300.429 2241.88,300.429 
  "/>
<polyline clip-path="url(#clip562)" style="stroke:#000000; stroke-linecap:butt; stroke-linejoin:round; stroke-width:2; stroke-opacity:0.1; fill:none" points="
  408.651,94.4882 2241.88,94.4882 
  "/>
<polyline clip-path="url(#clip560)" style="stroke:#000000; stroke-linecap:butt; stroke-linejoin:round; stroke-width:4; stroke-opacity:1; fill:none" points="
  408.651,1124.19 408.651,94.4882 
  "/>
<polyline clip-path="url(#clip560)" style="stroke:#000000; stroke-linecap:butt; stroke-linejoin:round; stroke-width:4; stroke-opacity:1; fill:none" points="
  2241.88,1124.19 2241.88,94.4882 
  "/>
<polyline clip-path="url(#clip560)" style="stroke:#000000; stroke-linecap:butt; stroke-linejoin:round; stroke-width:4; stroke-opacity:1; fill:none" points="
  408.651,1124.19 427.548,1124.19 
  "/>
<polyline clip-path="url(#clip560)" style="stroke:#000000; stroke-linecap:butt; stroke-linejoin:round; stroke-width:4; stroke-opacity:1; fill:none" points="
  408.651,918.253 427.548,918.253 
  "/>
<polyline clip-path="url(#clip560)" style="stroke:#000000; stroke-linecap:butt; stroke-linejoin:round; stroke-width:4; stroke-opacity:1; fill:none" points="
  408.651,712.312 427.548,712.312 
  "/>
<polyline clip-path="url(#clip560)" style="stroke:#000000; stroke-linecap:butt; stroke-linejoin:round; stroke-width:4; stroke-opacity:1; fill:none" points="
  408.651,506.371 427.548,506.371 
  "/>
<polyline clip-path="url(#clip560)" style="stroke:#000000; stroke-linecap:butt; stroke-linejoin:round; stroke-width:4; stroke-opacity:1; fill:none" points="
  408.651,300.429 427.548,300.429 
  "/>
<polyline clip-path="url(#clip560)" style="stroke:#000000; stroke-linecap:butt; stroke-linejoin:round; stroke-width:4; stroke-opacity:1; fill:none" points="
  408.651,94.4882 427.548,94.4882 
  "/>
<path clip-path="url(#clip560)" d="M189.525 1143.99 L197.164 1143.99 L197.164 1117.62 L188.854 1119.29 L188.854 1115.03 L197.117 1113.36 L201.793 1113.36 L201.793 1143.99 L209.432 1143.99 L209.432 1147.92 L189.525 1147.92 L189.525 1143.99 Z" fill="#000000" fill-rule="evenodd" fill-opacity="1" /><path clip-path="url(#clip560)" d="M228.876 1116.44 Q225.265 1116.44 223.437 1120.01 Q221.631 1123.55 221.631 1130.68 Q221.631 1137.78 223.437 1141.35 Q225.265 1144.89 228.876 1144.89 Q232.511 1144.89 234.316 1141.35 Q236.145 1137.78 236.145 1130.68 Q236.145 1123.55 234.316 1120.01 Q232.511 1116.44 228.876 1116.44 M228.876 1112.74 Q234.687 1112.74 237.742 1117.34 Q240.821 1121.93 240.821 1130.68 Q240.821 1139.4 237.742 1144.01 Q234.687 1148.59 228.876 1148.59 Q223.066 1148.59 219.988 1144.01 Q216.932 1139.4 216.932 1130.68 Q216.932 1121.93 219.988 1117.34 Q223.066 1112.74 228.876 1112.74 Z" fill="#000000" fill-rule="evenodd" fill-opacity="1" /><path clip-path="url(#clip560)" d="M245.391 1117.31 L258.651 1117.31 L258.651 1120.51 L240.821 1120.51 L240.821 1117.31 Q242.984 1115.08 246.708 1111.31 Q250.45 1107.53 251.41 1106.44 Q253.234 1104.39 253.949 1102.98 Q254.682 1101.55 254.682 1100.18 Q254.682 1097.94 253.102 1096.53 Q251.541 1095.12 249.021 1095.12 Q247.234 1095.12 245.241 1095.74 Q243.266 1096.36 241.009 1097.62 L241.009 1093.79 Q243.303 1092.86 245.297 1092.39 Q247.291 1091.92 248.946 1091.92 Q253.309 1091.92 255.905 1094.11 Q258.5 1096.29 258.5 1099.94 Q258.5 1101.67 257.842 1103.23 Q257.202 1104.77 255.491 1106.88 Q255.021 1107.42 252.5 1110.04 Q249.98 1112.63 245.391 1117.31 Z" fill="#000000" fill-rule="evenodd" fill-opacity="1" /><path clip-path="url(#clip560)" d="M188.867 938.046 L196.505 938.046 L196.505 911.68 L188.195 913.347 L188.195 909.087 L196.459 907.421 L201.135 907.421 L201.135 938.046 L208.774 938.046 L208.774 941.981 L188.867 941.981 L188.867 938.046 Z" fill="#000000" fill-rule="evenodd" fill-opacity="1" /><path clip-path="url(#clip560)" d="M228.218 910.499 Q224.607 910.499 222.778 914.064 Q220.973 917.606 220.973 924.735 Q220.973 931.842 222.778 935.407 Q224.607 938.948 228.218 938.948 Q231.852 938.948 233.658 935.407 Q235.487 931.842 235.487 924.735 Q235.487 917.606 233.658 914.064 Q231.852 910.499 228.218 910.499 M228.218 906.796 Q234.028 906.796 237.084 911.402 Q240.163 915.986 240.163 924.735 Q240.163 933.462 237.084 938.069 Q234.028 942.652 228.218 942.652 Q222.408 942.652 219.329 938.069 Q216.274 933.462 216.274 924.735 Q216.274 915.986 219.329 911.402 Q222.408 906.796 228.218 906.796 Z" fill="#000000" fill-rule="evenodd" fill-opacity="1" /><path clip-path="url(#clip560)" d="M252.858 899.43 Q255.585 900.013 257.108 901.856 Q258.651 903.699 258.651 906.408 Q258.651 910.564 255.792 912.84 Q252.933 915.116 247.667 915.116 Q245.899 915.116 244.018 914.758 Q242.156 914.42 240.163 913.724 L240.163 910.057 Q241.742 910.978 243.623 911.448 Q245.504 911.918 247.554 911.918 Q251.128 911.918 252.99 910.508 Q254.87 909.097 254.87 906.408 Q254.87 903.925 253.121 902.533 Q251.391 901.123 248.288 901.123 L245.015 901.123 L245.015 898.001 L248.438 898.001 Q251.24 898.001 252.726 896.891 Q254.212 895.763 254.212 893.656 Q254.212 891.493 252.67 890.346 Q251.146 889.18 248.288 889.18 Q246.727 889.18 244.94 889.518 Q243.153 889.857 241.009 890.572 L241.009 887.186 Q243.172 886.584 245.053 886.283 Q246.952 885.983 248.626 885.983 Q252.952 885.983 255.472 887.957 Q257.992 889.913 257.992 893.261 Q257.992 895.593 256.657 897.211 Q255.322 898.809 252.858 899.43 Z" fill="#000000" fill-rule="evenodd" fill-opacity="1" /><path clip-path="url(#clip560)" d="M186.892 732.104 L194.531 732.104 L194.531 705.739 L186.22 707.405 L186.22 703.146 L194.484 701.48 L199.16 701.48 L199.16 732.104 L206.799 732.104 L206.799 736.04 L186.892 736.04 L186.892 732.104 Z" fill="#000000" fill-rule="evenodd" fill-opacity="1" /><path clip-path="url(#clip560)" d="M226.243 704.558 Q222.632 704.558 220.804 708.123 Q218.998 711.665 218.998 718.794 Q218.998 725.901 220.804 729.465 Q222.632 733.007 226.243 733.007 Q229.878 733.007 231.683 729.465 Q233.512 725.901 233.512 718.794 Q233.512 711.665 231.683 708.123 Q229.878 704.558 226.243 704.558 M226.243 700.855 Q232.054 700.855 235.109 705.461 Q238.188 710.044 238.188 718.794 Q238.188 727.521 235.109 732.128 Q232.054 736.711 226.243 736.711 Q220.433 736.711 217.355 732.128 Q214.299 727.521 214.299 718.794 Q214.299 710.044 217.355 705.461 Q220.433 700.855 226.243 700.855 Z" fill="#000000" fill-rule="evenodd" fill-opacity="1" /><path clip-path="url(#clip560)" d="M250.864 683.859 L241.272 698.849 L250.864 698.849 L250.864 683.859 M249.867 680.549 L254.645 680.549 L254.645 698.849 L258.651 698.849 L258.651 702.009 L254.645 702.009 L254.645 708.629 L250.864 708.629 L250.864 702.009 L238.188 702.009 L238.188 698.341 L249.867 680.549 Z" fill="#000000" fill-rule="evenodd" fill-opacity="1" /><path clip-path="url(#clip560)" d="M189.186 526.163 L196.825 526.163 L196.825 499.798 L188.515 501.464 L188.515 497.205 L196.779 495.538 L201.455 495.538 L201.455 526.163 L209.094 526.163 L209.094 530.098 L189.186 530.098 L189.186 526.163 Z" fill="#000000" fill-rule="evenodd" fill-opacity="1" /><path clip-path="url(#clip560)" d="M228.538 498.617 Q224.927 498.617 223.098 502.182 Q221.293 505.723 221.293 512.853 Q221.293 519.959 223.098 523.524 Q224.927 527.066 228.538 527.066 Q232.172 527.066 233.978 523.524 Q235.806 519.959 235.806 512.853 Q235.806 505.723 233.978 502.182 Q232.172 498.617 228.538 498.617 M228.538 494.913 Q234.348 494.913 237.404 499.52 Q240.482 504.103 240.482 512.853 Q240.482 521.58 237.404 526.186 Q234.348 530.77 228.538 530.77 Q222.728 530.77 219.649 526.186 Q216.594 521.58 216.594 512.853 Q216.594 504.103 219.649 499.52 Q222.728 494.913 228.538 494.913 Z" fill="#000000" fill-rule="evenodd" fill-opacity="1" /><path clip-path="url(#clip560)" d="M241.667 474.608 L256.582 474.608 L256.582 477.805 L245.147 477.805 L245.147 484.689 Q245.974 484.407 246.802 484.275 Q247.629 484.125 248.457 484.125 Q253.159 484.125 255.905 486.701 Q258.651 489.278 258.651 493.679 Q258.651 498.212 255.829 500.732 Q253.008 503.233 247.874 503.233 Q246.106 503.233 244.263 502.932 Q242.438 502.631 240.482 502.03 L240.482 498.212 Q242.175 499.133 243.981 499.585 Q245.786 500.036 247.799 500.036 Q251.052 500.036 252.952 498.324 Q254.851 496.613 254.851 493.679 Q254.851 490.745 252.952 489.033 Q251.052 487.322 247.799 487.322 Q246.275 487.322 244.752 487.66 Q243.247 487.999 241.667 488.714 L241.667 474.608 Z" fill="#000000" fill-rule="evenodd" fill-opacity="1" /><path clip-path="url(#clip560)" d="M187.964 320.222 L195.603 320.222 L195.603 293.856 L187.293 295.523 L187.293 291.264 L195.556 289.597 L200.232 289.597 L200.232 320.222 L207.871 320.222 L207.871 324.157 L187.964 324.157 L187.964 320.222 Z" fill="#000000" fill-rule="evenodd" fill-opacity="1" /><path clip-path="url(#clip560)" d="M227.315 292.676 Q223.704 292.676 221.876 296.241 Q220.07 299.782 220.07 306.912 Q220.07 314.018 221.876 317.583 Q223.704 321.125 227.315 321.125 Q230.95 321.125 232.755 317.583 Q234.584 314.018 234.584 306.912 Q234.584 299.782 232.755 296.241 Q230.95 292.676 227.315 292.676 M227.315 288.972 Q233.126 288.972 236.181 293.578 Q239.26 298.162 239.26 306.912 Q239.26 315.639 236.181 320.245 Q233.126 324.828 227.315 324.828 Q221.505 324.828 218.427 320.245 Q215.371 315.639 215.371 306.912 Q215.371 298.162 218.427 293.578 Q221.505 288.972 227.315 288.972 Z" fill="#000000" fill-rule="evenodd" fill-opacity="1" /><path clip-path="url(#clip560)" d="M249.284 281.193 Q246.727 281.193 245.222 282.942 Q243.736 284.691 243.736 287.738 Q243.736 290.766 245.222 292.534 Q246.727 294.283 249.284 294.283 Q251.842 294.283 253.328 292.534 Q254.833 290.766 254.833 287.738 Q254.833 284.691 253.328 282.942 Q251.842 281.193 249.284 281.193 M256.826 269.287 L256.826 272.748 Q255.397 272.071 253.93 271.713 Q252.482 271.356 251.052 271.356 Q247.291 271.356 245.297 273.895 Q243.322 276.434 243.04 281.569 Q244.15 279.932 245.824 279.067 Q247.498 278.183 249.51 278.183 Q253.742 278.183 256.187 280.76 Q258.651 283.318 258.651 287.738 Q258.651 292.064 256.093 294.678 Q253.535 297.292 249.284 297.292 Q244.413 297.292 241.836 293.568 Q239.26 289.825 239.26 282.735 Q239.26 276.077 242.42 272.127 Q245.579 268.159 250.902 268.159 Q252.331 268.159 253.779 268.441 Q255.246 268.723 256.826 269.287 Z" fill="#000000" fill-rule="evenodd" fill-opacity="1" /><path clip-path="url(#clip560)" d="M189.299 114.281 L196.938 114.281 L196.938 87.915 L188.628 89.5817 L188.628 85.3224 L196.892 83.6558 L201.568 83.6558 L201.568 114.281 L209.206 114.281 L209.206 118.216 L189.299 118.216 L189.299 114.281 Z" fill="#000000" fill-rule="evenodd" fill-opacity="1" /><path clip-path="url(#clip560)" d="M228.651 86.7345 Q225.04 86.7345 223.211 90.2993 Q221.405 93.8409 221.405 100.971 Q221.405 108.077 223.211 111.642 Q225.04 115.183 228.651 115.183 Q232.285 115.183 234.091 111.642 Q235.919 108.077 235.919 100.971 Q235.919 93.8409 234.091 90.2993 Q232.285 86.7345 228.651 86.7345 M228.651 83.0308 Q234.461 83.0308 237.516 87.6372 Q240.595 92.2206 240.595 100.971 Q240.595 109.697 237.516 114.304 Q234.461 118.887 228.651 118.887 Q222.841 118.887 219.762 114.304 Q216.706 109.697 216.706 100.971 Q216.706 92.2206 219.762 87.6372 Q222.841 83.0308 228.651 83.0308 Z" fill="#000000" fill-rule="evenodd" fill-opacity="1" /><path clip-path="url(#clip560)" d="M240.595 62.7254 L258.651 62.7254 L258.651 64.3429 L248.457 90.8054 L244.488 90.8054 L254.08 65.9227 L240.595 65.9227 L240.595 62.7254 Z" fill="#000000" fill-rule="evenodd" fill-opacity="1" /><polyline clip-path="url(#clip562)" style="stroke:#87cefa; stroke-linecap:butt; stroke-linejoin:round; stroke-width:24; stroke-opacity:0.8; fill:none" points="
  448.841,271.755 741.622,250.363 1034.4,229.277 1327.18,216.012 1619.96,211.707 1912.74,191.963 2205.52,172.437 
  "/>
<path clip-path="url(#clip562)" d="M448.841 295.755 L442.049 278.547 L424.841 271.755 L442.049 264.963 L448.841 247.755 L455.633 264.963 L472.841 271.755 L455.633 278.547 L448.841 295.755 Z" fill="#87cefa" fill-rule="evenodd" fill-opacity="0.6" stroke="#000000" stroke-opacity="0.6" stroke-width="2.8"/>
<path clip-path="url(#clip562)" d="M741.622 274.363 L734.83 257.155 L717.622 250.363 L734.83 243.571 L741.622 226.363 L748.414 243.571 L765.622 250.363 L748.414 257.155 L741.622 274.363 Z" fill="#87cefa" fill-rule="evenodd" fill-opacity="0.6" stroke="#000000" stroke-opacity="0.6" stroke-width="2.8"/>
<path clip-path="url(#clip562)" d="M1034.4 253.277 L1027.61 236.069 L1010.4 229.277 L1027.61 222.485 L1034.4 205.277 L1041.19 222.485 L1058.4 229.277 L1041.19 236.069 L1034.4 253.277 Z" fill="#87cefa" fill-rule="evenodd" fill-opacity="0.6" stroke="#000000" stroke-opacity="0.6" stroke-width="2.8"/>
<path clip-path="url(#clip562)" d="M1327.18 240.012 L1320.39 222.804 L1303.18 216.012 L1320.39 209.22 L1327.18 192.012 L1333.97 209.22 L1351.18 216.012 L1333.97 222.804 L1327.18 240.012 Z" fill="#87cefa" fill-rule="evenodd" fill-opacity="0.6" stroke="#000000" stroke-opacity="0.6" stroke-width="2.8"/>
<path clip-path="url(#clip562)" d="M1619.96 235.707 L1613.17 218.499 L1595.96 211.707 L1613.17 204.915 L1619.96 187.707 L1626.76 204.915 L1643.96 211.707 L1626.76 218.499 L1619.96 235.707 Z" fill="#87cefa" fill-rule="evenodd" fill-opacity="0.6" stroke="#000000" stroke-opacity="0.6" stroke-width="2.8"/>
<path clip-path="url(#clip562)" d="M1912.74 215.963 L1905.95 198.755 L1888.74 191.963 L1905.95 185.171 L1912.74 167.963 L1919.54 185.171 L1936.74 191.963 L1919.54 198.755 L1912.74 215.963 Z" fill="#87cefa" fill-rule="evenodd" fill-opacity="0.6" stroke="#000000" stroke-opacity="0.6" stroke-width="2.8"/>
<path clip-path="url(#clip562)" d="M2205.52 196.437 L2198.73 179.229 L2181.52 172.437 L2198.73 165.645 L2205.52 148.437 L2212.32 165.645 L2229.52 172.437 L2212.32 179.229 L2205.52 196.437 Z" fill="#87cefa" fill-rule="evenodd" fill-opacity="0.6" stroke="#000000" stroke-opacity="0.6" stroke-width="2.8"/>
<polyline clip-path="url(#clip562)" style="stroke:#4169e1; stroke-linecap:butt; stroke-linejoin:round; stroke-width:24; stroke-opacity:0.8; fill:none" points="
  448.841,407.122 741.622,363.289 1034.4,332.088 1327.18,303.525 1619.96,316.726 1912.74,294.806 2205.52,299.821 
  "/>
<circle clip-path="url(#clip562)" cx="448.841" cy="407.122" r="21" fill="#4169e1" fill-rule="evenodd" fill-opacity="0.6" stroke="#000000" stroke-opacity="0.6" stroke-width="2.8"/>
<circle clip-path="url(#clip562)" cx="741.622" cy="363.289" r="21" fill="#4169e1" fill-rule="evenodd" fill-opacity="0.6" stroke="#000000" stroke-opacity="0.6" stroke-width="2.8"/>
<circle clip-path="url(#clip562)" cx="1034.4" cy="332.088" r="21" fill="#4169e1" fill-rule="evenodd" fill-opacity="0.6" stroke="#000000" stroke-opacity="0.6" stroke-width="2.8"/>
<circle clip-path="url(#clip562)" cx="1327.18" cy="303.525" r="21" fill="#4169e1" fill-rule="evenodd" fill-opacity="0.6" stroke="#000000" stroke-opacity="0.6" stroke-width="2.8"/>
<circle clip-path="url(#clip562)" cx="1619.96" cy="316.726" r="21" fill="#4169e1" fill-rule="evenodd" fill-opacity="0.6" stroke="#000000" stroke-opacity="0.6" stroke-width="2.8"/>
<circle clip-path="url(#clip562)" cx="1912.74" cy="294.806" r="21" fill="#4169e1" fill-rule="evenodd" fill-opacity="0.6" stroke="#000000" stroke-opacity="0.6" stroke-width="2.8"/>
<circle clip-path="url(#clip562)" cx="2205.52" cy="299.821" r="21" fill="#4169e1" fill-rule="evenodd" fill-opacity="0.6" stroke="#000000" stroke-opacity="0.6" stroke-width="2.8"/>
<polyline clip-path="url(#clip562)" style="stroke:#551a8b; stroke-linecap:butt; stroke-linejoin:round; stroke-width:24; stroke-opacity:0.8; fill:none" points="
  448.841,728.034 741.622,696.617 1034.4,686.44 1327.18,672.872 1619.96,644.508 1912.74,641.289 2205.52,636.573 
  "/>
<path clip-path="url(#clip562)" d="M448.841 704.034 L430.073 713.082 L425.441 733.386 L438.425 749.658 L459.257 749.658 L472.241 733.386 L467.609 713.082 Z" fill="#551a8b" fill-rule="evenodd" fill-opacity="0.6" stroke="#000000" stroke-opacity="0.6" stroke-width="2.8"/>
<path clip-path="url(#clip562)" d="M741.622 672.617 L722.854 681.665 L718.222 701.969 L731.206 718.241 L752.038 718.241 L765.022 701.969 L760.39 681.665 Z" fill="#551a8b" fill-rule="evenodd" fill-opacity="0.6" stroke="#000000" stroke-opacity="0.6" stroke-width="2.8"/>
<path clip-path="url(#clip562)" d="M1034.4 662.44 L1015.63 671.488 L1011 691.792 L1023.99 708.064 L1044.82 708.064 L1057.8 691.792 L1053.17 671.488 Z" fill="#551a8b" fill-rule="evenodd" fill-opacity="0.6" stroke="#000000" stroke-opacity="0.6" stroke-width="2.8"/>
<path clip-path="url(#clip562)" d="M1327.18 648.872 L1308.41 657.92 L1303.78 678.224 L1316.77 694.496 L1337.6 694.496 L1350.58 678.224 L1345.95 657.92 Z" fill="#551a8b" fill-rule="evenodd" fill-opacity="0.6" stroke="#000000" stroke-opacity="0.6" stroke-width="2.8"/>
<path clip-path="url(#clip562)" d="M1619.96 620.508 L1601.2 629.556 L1596.56 649.86 L1609.55 666.132 L1630.38 666.132 L1643.36 649.86 L1638.73 629.556 Z" fill="#551a8b" fill-rule="evenodd" fill-opacity="0.6" stroke="#000000" stroke-opacity="0.6" stroke-width="2.8"/>
<path clip-path="url(#clip562)" d="M1912.74 617.289 L1893.98 626.337 L1889.34 646.641 L1902.33 662.913 L1923.16 662.913 L1936.14 646.641 L1931.51 626.337 Z" fill="#551a8b" fill-rule="evenodd" fill-opacity="0.6" stroke="#000000" stroke-opacity="0.6" stroke-width="2.8"/>
<path clip-path="url(#clip562)" d="M2205.52 612.573 L2186.76 621.621 L2182.12 641.925 L2195.11 658.197 L2215.94 658.197 L2228.92 641.925 L2224.29 621.621 Z" fill="#551a8b" fill-rule="evenodd" fill-opacity="0.6" stroke="#000000" stroke-opacity="0.6" stroke-width="2.8"/>
<polyline clip-path="url(#clip562)" style="stroke:#8470ff; stroke-linecap:butt; stroke-linejoin:round; stroke-width:24; stroke-opacity:0.8; fill:none" points="
  448.841,994.22 741.622,893.793 1034.4,901.423 1327.18,854.564 1619.96,786.933 1912.74,723.219 2205.52,676.661 
  "/>
<path clip-path="url(#clip562)" d="M448.841 970.22 L424.841 994.22 L448.841 1018.22 L472.841 994.22 L448.841 970.22 Z" fill="#8470ff" fill-rule="evenodd" fill-opacity="0.6" stroke="#000000" stroke-opacity="0.6" stroke-width="2.8"/>
<path clip-path="url(#clip562)" d="M741.622 869.793 L717.622 893.793 L741.622 917.793 L765.622 893.793 L741.622 869.793 Z" fill="#8470ff" fill-rule="evenodd" fill-opacity="0.6" stroke="#000000" stroke-opacity="0.6" stroke-width="2.8"/>
<path clip-path="url(#clip562)" d="M1034.4 877.423 L1010.4 901.423 L1034.4 925.423 L1058.4 901.423 L1034.4 877.423 Z" fill="#8470ff" fill-rule="evenodd" fill-opacity="0.6" stroke="#000000" stroke-opacity="0.6" stroke-width="2.8"/>
<path clip-path="url(#clip562)" d="M1327.18 830.564 L1303.18 854.564 L1327.18 878.564 L1351.18 854.564 L1327.18 830.564 Z" fill="#8470ff" fill-rule="evenodd" fill-opacity="0.6" stroke="#000000" stroke-opacity="0.6" stroke-width="2.8"/>
<path clip-path="url(#clip562)" d="M1619.96 762.933 L1595.96 786.933 L1619.96 810.933 L1643.96 786.933 L1619.96 762.933 Z" fill="#8470ff" fill-rule="evenodd" fill-opacity="0.6" stroke="#000000" stroke-opacity="0.6" stroke-width="2.8"/>
<path clip-path="url(#clip562)" d="M1912.74 699.219 L1888.74 723.219 L1912.74 747.219 L1936.74 723.219 L1912.74 699.219 Z" fill="#8470ff" fill-rule="evenodd" fill-opacity="0.6" stroke="#000000" stroke-opacity="0.6" stroke-width="2.8"/>
<path clip-path="url(#clip562)" d="M2205.52 652.661 L2181.52 676.661 L2205.52 700.661 L2229.52 676.661 L2205.52 652.661 Z" fill="#8470ff" fill-rule="evenodd" fill-opacity="0.6" stroke="#000000" stroke-opacity="0.6" stroke-width="2.8"/>
<polyline clip-path="url(#clip562)" style="stroke:#000080; stroke-linecap:butt; stroke-linejoin:round; stroke-width:24; stroke-opacity:0.8; fill:none" points="
  448.841,447.163 741.622,411.269 1034.4,388.038 1327.18,393.703 1619.96,358.407 1912.74,356.423 2205.52,352.105 
  "/>
<path clip-path="url(#clip562)" d="M472.841 423.163 L424.841 423.163 L448.841 471.163 L472.841 423.163 Z" fill="#000080" fill-rule="evenodd" fill-opacity="0.6" stroke="#000000" stroke-opacity="0.6" stroke-width="2.8"/>
<path clip-path="url(#clip562)" d="M765.622 387.269 L717.622 387.269 L741.622 435.269 L765.622 387.269 Z" fill="#000080" fill-rule="evenodd" fill-opacity="0.6" stroke="#000000" stroke-opacity="0.6" stroke-width="2.8"/>
<path clip-path="url(#clip562)" d="M1058.4 364.038 L1010.4 364.038 L1034.4 412.038 L1058.4 364.038 Z" fill="#000080" fill-rule="evenodd" fill-opacity="0.6" stroke="#000000" stroke-opacity="0.6" stroke-width="2.8"/>
<path clip-path="url(#clip562)" d="M1351.18 369.703 L1303.18 369.703 L1327.18 417.703 L1351.18 369.703 Z" fill="#000080" fill-rule="evenodd" fill-opacity="0.6" stroke="#000000" stroke-opacity="0.6" stroke-width="2.8"/>
<path clip-path="url(#clip562)" d="M1643.96 334.407 L1595.96 334.407 L1619.96 382.407 L1643.96 334.407 Z" fill="#000080" fill-rule="evenodd" fill-opacity="0.6" stroke="#000000" stroke-opacity="0.6" stroke-width="2.8"/>
<path clip-path="url(#clip562)" d="M1936.74 332.423 L1888.74 332.423 L1912.74 380.423 L1936.74 332.423 Z" fill="#000080" fill-rule="evenodd" fill-opacity="0.6" stroke="#000000" stroke-opacity="0.6" stroke-width="2.8"/>
<path clip-path="url(#clip562)" d="M2229.52 328.105 L2181.52 328.105 L2205.52 376.105 L2229.52 328.105 Z" fill="#000080" fill-rule="evenodd" fill-opacity="0.6" stroke="#000000" stroke-opacity="0.6" stroke-width="2.8"/>
<path clip-path="url(#clip560)" d="
M2336.37 1124.19 L4169.6 1124.19 L4169.6 94.4882 L2336.37 94.4882  Z
  " fill="#ffffff" fill-rule="evenodd" fill-opacity="1"/>
<defs>
  <clipPath id="clip563">
    <rect x="2336" y="94" width="1834" height="1031"/>
  </clipPath>
</defs>
<polyline clip-path="url(#clip563)" style="stroke:#000000; stroke-linecap:butt; stroke-linejoin:round; stroke-width:2; stroke-opacity:0.1; fill:none" points="
  2376.56,1124.19 2376.56,94.4882 
  "/>
<polyline clip-path="url(#clip563)" style="stroke:#000000; stroke-linecap:butt; stroke-linejoin:round; stroke-width:2; stroke-opacity:0.1; fill:none" points="
  3254.9,1124.19 3254.9,94.4882 
  "/>
<polyline clip-path="url(#clip563)" style="stroke:#000000; stroke-linecap:butt; stroke-linejoin:round; stroke-width:2; stroke-opacity:0.1; fill:none" points="
  4133.24,1124.19 4133.24,94.4882 
  "/>
<polyline clip-path="url(#clip560)" style="stroke:#000000; stroke-linecap:butt; stroke-linejoin:round; stroke-width:4; stroke-opacity:1; fill:none" points="
  2336.37,1124.19 4169.6,1124.19 
  "/>
<polyline clip-path="url(#clip560)" style="stroke:#000000; stroke-linecap:butt; stroke-linejoin:round; stroke-width:4; stroke-opacity:1; fill:none" points="
  2336.37,94.4882 4169.6,94.4882 
  "/>
<polyline clip-path="url(#clip560)" style="stroke:#000000; stroke-linecap:butt; stroke-linejoin:round; stroke-width:4; stroke-opacity:1; fill:none" points="
  2376.56,1124.19 2376.56,1105.3 
  "/>
<polyline clip-path="url(#clip560)" style="stroke:#000000; stroke-linecap:butt; stroke-linejoin:round; stroke-width:4; stroke-opacity:1; fill:none" points="
  3254.9,1124.19 3254.9,1105.3 
  "/>
<polyline clip-path="url(#clip560)" style="stroke:#000000; stroke-linecap:butt; stroke-linejoin:round; stroke-width:4; stroke-opacity:1; fill:none" points="
  4133.24,1124.19 4133.24,1105.3 
  "/>
<path clip-path="url(#clip560)" d="M2342.89 1259.12 L2350.53 1259.12 L2350.53 1232.75 L2342.22 1234.42 L2342.22 1230.16 L2350.48 1228.49 L2355.16 1228.49 L2355.16 1259.12 L2362.79 1259.12 L2362.79 1263.05 L2342.89 1263.05 L2342.89 1259.12 Z" fill="#000000" fill-rule="evenodd" fill-opacity="1" /><path clip-path="url(#clip560)" d="M2382.24 1231.57 Q2378.63 1231.57 2376.8 1235.14 Q2374.99 1238.68 2374.99 1245.81 Q2374.99 1252.92 2376.8 1256.48 Q2378.63 1260.02 2382.24 1260.02 Q2385.87 1260.02 2387.68 1256.48 Q2389.51 1252.92 2389.51 1245.81 Q2389.51 1238.68 2387.68 1235.14 Q2385.87 1231.57 2382.24 1231.57 M2382.24 1227.87 Q2388.05 1227.87 2391.1 1232.48 Q2394.18 1237.06 2394.18 1245.81 Q2394.18 1254.54 2391.1 1259.14 Q2388.05 1263.73 2382.24 1263.73 Q2376.43 1263.73 2373.35 1259.14 Q2370.29 1254.54 2370.29 1245.81 Q2370.29 1237.06 2373.35 1232.48 Q2376.43 1227.87 2382.24 1227.87 Z" fill="#000000" fill-rule="evenodd" fill-opacity="1" /><path clip-path="url(#clip560)" d="M2394.73 1232.45 L2400.94 1232.45 L2400.94 1211.02 L2394.18 1212.38 L2394.18 1208.92 L2400.9 1207.56 L2404.7 1207.56 L2404.7 1232.45 L2410.9 1232.45 L2410.9 1235.64 L2394.73 1235.64 L2394.73 1232.45 Z" fill="#000000" fill-rule="evenodd" fill-opacity="1" /><path clip-path="url(#clip560)" d="M3220.67 1259.12 L3228.31 1259.12 L3228.31 1232.75 L3220 1234.42 L3220 1230.16 L3228.27 1228.49 L3232.94 1228.49 L3232.94 1259.12 L3240.58 1259.12 L3240.58 1263.05 L3220.67 1263.05 L3220.67 1259.12 Z" fill="#000000" fill-rule="evenodd" fill-opacity="1" /><path clip-path="url(#clip560)" d="M3260.03 1231.57 Q3256.41 1231.57 3254.59 1235.14 Q3252.78 1238.68 3252.78 1245.81 Q3252.78 1252.92 3254.59 1256.48 Q3256.41 1260.02 3260.03 1260.02 Q3263.66 1260.02 3265.47 1256.48 Q3267.29 1252.92 3267.29 1245.81 Q3267.29 1238.68 3265.47 1235.14 Q3263.66 1231.57 3260.03 1231.57 M3260.03 1227.87 Q3265.84 1227.87 3268.89 1232.48 Q3271.97 1237.06 3271.97 1245.81 Q3271.97 1254.54 3268.89 1259.14 Q3265.84 1263.73 3260.03 1263.73 Q3254.22 1263.73 3251.14 1259.14 Q3248.08 1254.54 3248.08 1245.81 Q3248.08 1237.06 3251.14 1232.48 Q3254.22 1227.87 3260.03 1227.87 Z" fill="#000000" fill-rule="evenodd" fill-opacity="1" /><path clip-path="url(#clip560)" d="M3276.54 1232.45 L3289.8 1232.45 L3289.8 1235.64 L3271.97 1235.64 L3271.97 1232.45 Q3274.13 1230.21 3277.86 1226.45 Q3281.6 1222.67 3282.56 1221.58 Q3284.38 1219.53 3285.1 1218.12 Q3285.83 1216.69 3285.83 1215.31 Q3285.83 1213.07 3284.25 1211.66 Q3282.69 1210.25 3280.17 1210.25 Q3278.38 1210.25 3276.39 1210.87 Q3274.42 1211.49 3272.16 1212.75 L3272.16 1208.92 Q3274.45 1208 3276.45 1207.53 Q3278.44 1207.06 3280.1 1207.06 Q3284.46 1207.06 3287.05 1209.24 Q3289.65 1211.42 3289.65 1215.07 Q3289.65 1216.8 3288.99 1218.36 Q3288.35 1219.9 3286.64 1222.01 Q3286.17 1222.55 3283.65 1225.17 Q3281.13 1227.76 3276.54 1232.45 Z" fill="#000000" fill-rule="evenodd" fill-opacity="1" /><path clip-path="url(#clip560)" d="M4098.69 1259.12 L4106.33 1259.12 L4106.33 1232.75 L4098.02 1234.42 L4098.02 1230.16 L4106.28 1228.49 L4110.95 1228.49 L4110.95 1259.12 L4118.59 1259.12 L4118.59 1263.05 L4098.69 1263.05 L4098.69 1259.12 Z" fill="#000000" fill-rule="evenodd" fill-opacity="1" /><path clip-path="url(#clip560)" d="M4138.04 1231.57 Q4134.43 1231.57 4132.6 1235.14 Q4130.79 1238.68 4130.79 1245.81 Q4130.79 1252.92 4132.6 1256.48 Q4134.43 1260.02 4138.04 1260.02 Q4141.67 1260.02 4143.48 1256.48 Q4145.31 1252.92 4145.31 1245.81 Q4145.31 1238.68 4143.48 1235.14 Q4141.67 1231.57 4138.04 1231.57 M4138.04 1227.87 Q4143.85 1227.87 4146.9 1232.48 Q4149.98 1237.06 4149.98 1245.81 Q4149.98 1254.54 4146.9 1259.14 Q4143.85 1263.73 4138.04 1263.73 Q4132.23 1263.73 4129.15 1259.14 Q4126.09 1254.54 4126.09 1245.81 Q4126.09 1237.06 4129.15 1232.48 Q4132.23 1227.87 4138.04 1227.87 Z" fill="#000000" fill-rule="evenodd" fill-opacity="1" /><path clip-path="url(#clip560)" d="M4162.68 1220.5 Q4165.4 1221.09 4166.93 1222.93 Q4168.47 1224.77 4168.47 1227.48 Q4168.47 1231.64 4165.61 1233.91 Q4162.75 1236.19 4157.49 1236.19 Q4155.72 1236.19 4153.84 1235.83 Q4151.98 1235.49 4149.98 1234.8 L4149.98 1231.13 Q4151.56 1232.05 4153.44 1232.52 Q4155.32 1232.99 4157.37 1232.99 Q4160.95 1232.99 4162.81 1231.58 Q4164.69 1230.17 4164.69 1227.48 Q4164.69 1225 4162.94 1223.61 Q4161.21 1222.2 4158.11 1222.2 L4154.83 1222.2 L4154.83 1219.07 L4158.26 1219.07 Q4161.06 1219.07 4162.55 1217.96 Q4164.03 1216.84 4164.03 1214.73 Q4164.03 1212.57 4162.49 1211.42 Q4160.97 1210.25 4158.11 1210.25 Q4156.55 1210.25 4154.76 1210.59 Q4152.97 1210.93 4150.83 1211.65 L4150.83 1208.26 Q4152.99 1207.66 4154.87 1207.36 Q4156.77 1207.06 4158.45 1207.06 Q4162.77 1207.06 4165.29 1209.03 Q4167.81 1210.99 4167.81 1214.33 Q4167.81 1216.67 4166.48 1218.28 Q4165.14 1219.88 4162.68 1220.5 Z" fill="#000000" fill-rule="evenodd" fill-opacity="1" /><polyline clip-path="url(#clip560)" style="stroke:#000000; stroke-linecap:butt; stroke-linejoin:round; stroke-width:4; stroke-opacity:1; fill:none" points="
  2336.37,1124.19 2336.37,94.4882 
  "/>
<polyline clip-path="url(#clip560)" style="stroke:#000000; stroke-linecap:butt; stroke-linejoin:round; stroke-width:4; stroke-opacity:1; fill:none" points="
  4169.6,1124.19 4169.6,94.4882 
  "/>
<path clip-path="url(#clip560)" d="
M4264.09 1124.19 L6097.32 1124.19 L6097.32 94.4882 L4264.09 94.4882  Z
  " fill="#ffffff" fill-rule="evenodd" fill-opacity="1"/>
<defs>
  <clipPath id="clip564">
    <rect x="4264" y="94" width="1834" height="1031"/>
  </clipPath>
</defs>
<polyline clip-path="url(#clip564)" style="stroke:#000000; stroke-linecap:butt; stroke-linejoin:round; stroke-width:2; stroke-opacity:0.1; fill:none" points="
  4304.28,1124.19 4304.28,94.4882 
  "/>
<polyline clip-path="url(#clip564)" style="stroke:#000000; stroke-linecap:butt; stroke-linejoin:round; stroke-width:2; stroke-opacity:0.1; fill:none" points="
  5182.62,1124.19 5182.62,94.4882 
  "/>
<polyline clip-path="url(#clip564)" style="stroke:#000000; stroke-linecap:butt; stroke-linejoin:round; stroke-width:2; stroke-opacity:0.1; fill:none" points="
  6060.96,1124.19 6060.96,94.4882 
  "/>
<polyline clip-path="url(#clip560)" style="stroke:#000000; stroke-linecap:butt; stroke-linejoin:round; stroke-width:4; stroke-opacity:1; fill:none" points="
  4264.09,1124.19 6097.32,1124.19 
  "/>
<polyline clip-path="url(#clip560)" style="stroke:#000000; stroke-linecap:butt; stroke-linejoin:round; stroke-width:4; stroke-opacity:1; fill:none" points="
  4264.09,94.4882 6097.32,94.4882 
  "/>
<polyline clip-path="url(#clip560)" style="stroke:#000000; stroke-linecap:butt; stroke-linejoin:round; stroke-width:4; stroke-opacity:1; fill:none" points="
  4304.28,1124.19 4304.28,1105.3 
  "/>
<polyline clip-path="url(#clip560)" style="stroke:#000000; stroke-linecap:butt; stroke-linejoin:round; stroke-width:4; stroke-opacity:1; fill:none" points="
  5182.62,1124.19 5182.62,1105.3 
  "/>
<polyline clip-path="url(#clip560)" style="stroke:#000000; stroke-linecap:butt; stroke-linejoin:round; stroke-width:4; stroke-opacity:1; fill:none" points="
  6060.96,1124.19 6060.96,1105.3 
  "/>
<path clip-path="url(#clip560)" d="M4270.61 1259.12 L4278.25 1259.12 L4278.25 1232.75 L4269.94 1234.42 L4269.94 1230.16 L4278.2 1228.49 L4282.87 1228.49 L4282.87 1259.12 L4290.51 1259.12 L4290.51 1263.05 L4270.61 1263.05 L4270.61 1259.12 Z" fill="#000000" fill-rule="evenodd" fill-opacity="1" /><path clip-path="url(#clip560)" d="M4309.96 1231.57 Q4306.35 1231.57 4304.52 1235.14 Q4302.71 1238.68 4302.71 1245.81 Q4302.71 1252.92 4304.52 1256.48 Q4306.35 1260.02 4309.96 1260.02 Q4313.59 1260.02 4315.4 1256.48 Q4317.23 1252.92 4317.23 1245.81 Q4317.23 1238.68 4315.4 1235.14 Q4313.59 1231.57 4309.96 1231.57 M4309.96 1227.87 Q4315.77 1227.87 4318.82 1232.48 Q4321.9 1237.06 4321.9 1245.81 Q4321.9 1254.54 4318.82 1259.14 Q4315.77 1263.73 4309.96 1263.73 Q4304.15 1263.73 4301.07 1259.14 Q4298.01 1254.54 4298.01 1245.81 Q4298.01 1237.06 4301.07 1232.48 Q4304.15 1227.87 4309.96 1227.87 Z" fill="#000000" fill-rule="evenodd" fill-opacity="1" /><path clip-path="url(#clip560)" d="M4322.45 1232.45 L4328.65 1232.45 L4328.65 1211.02 L4321.9 1212.38 L4321.9 1208.92 L4328.62 1207.56 L4332.42 1207.56 L4332.42 1232.45 L4338.62 1232.45 L4338.62 1235.64 L4322.45 1235.64 L4322.45 1232.45 Z" fill="#000000" fill-rule="evenodd" fill-opacity="1" /><path clip-path="url(#clip560)" d="M5148.39 1259.12 L5156.03 1259.12 L5156.03 1232.75 L5147.72 1234.42 L5147.72 1230.16 L5155.99 1228.49 L5160.66 1228.49 L5160.66 1259.12 L5168.3 1259.12 L5168.3 1263.05 L5148.39 1263.05 L5148.39 1259.12 Z" fill="#000000" fill-rule="evenodd" fill-opacity="1" /><path clip-path="url(#clip560)" d="M5187.74 1231.57 Q5184.13 1231.57 5182.3 1235.14 Q5180.5 1238.68 5180.5 1245.81 Q5180.5 1252.92 5182.3 1256.48 Q5184.13 1260.02 5187.74 1260.02 Q5191.38 1260.02 5193.18 1256.48 Q5195.01 1252.92 5195.01 1245.81 Q5195.01 1238.68 5193.18 1235.14 Q5191.38 1231.57 5187.74 1231.57 M5187.74 1227.87 Q5193.55 1227.87 5196.61 1232.48 Q5199.69 1237.06 5199.69 1245.81 Q5199.69 1254.54 5196.61 1259.14 Q5193.55 1263.73 5187.74 1263.73 Q5181.93 1263.73 5178.86 1259.14 Q5175.8 1254.54 5175.8 1245.81 Q5175.8 1237.06 5178.86 1232.48 Q5181.93 1227.87 5187.74 1227.87 Z" fill="#000000" fill-rule="evenodd" fill-opacity="1" /><path clip-path="url(#clip560)" d="M5204.26 1232.45 L5217.52 1232.45 L5217.52 1235.64 L5199.69 1235.64 L5199.69 1232.45 Q5201.85 1230.21 5205.58 1226.45 Q5209.32 1222.67 5210.28 1221.58 Q5212.1 1219.53 5212.82 1218.12 Q5213.55 1216.69 5213.55 1215.31 Q5213.55 1213.07 5211.97 1211.66 Q5210.41 1210.25 5207.89 1210.25 Q5206.1 1210.25 5204.11 1210.87 Q5202.13 1211.49 5199.88 1212.75 L5199.88 1208.92 Q5202.17 1208 5204.17 1207.53 Q5206.16 1207.06 5207.81 1207.06 Q5212.18 1207.06 5214.77 1209.24 Q5217.37 1211.42 5217.37 1215.07 Q5217.37 1216.8 5216.71 1218.36 Q5216.07 1219.9 5214.36 1222.01 Q5213.89 1222.55 5211.37 1225.17 Q5208.85 1227.76 5204.26 1232.45 Z" fill="#000000" fill-rule="evenodd" fill-opacity="1" /><path clip-path="url(#clip560)" d="M6026.41 1259.12 L6034.04 1259.12 L6034.04 1232.75 L6025.73 1234.42 L6025.73 1230.16 L6034 1228.49 L6038.67 1228.49 L6038.67 1259.12 L6046.31 1259.12 L6046.31 1263.05 L6026.41 1263.05 L6026.41 1259.12 Z" fill="#000000" fill-rule="evenodd" fill-opacity="1" /><path clip-path="url(#clip560)" d="M6065.76 1231.57 Q6062.15 1231.57 6060.32 1235.14 Q6058.51 1238.68 6058.51 1245.81 Q6058.51 1252.92 6060.32 1256.48 Q6062.15 1260.02 6065.76 1260.02 Q6069.39 1260.02 6071.2 1256.48 Q6073.03 1252.92 6073.03 1245.81 Q6073.03 1238.68 6071.2 1235.14 Q6069.39 1231.57 6065.76 1231.57 M6065.76 1227.87 Q6071.57 1227.87 6074.62 1232.48 Q6077.7 1237.06 6077.7 1245.81 Q6077.7 1254.54 6074.62 1259.14 Q6071.57 1263.73 6065.76 1263.73 Q6059.95 1263.73 6056.87 1259.14 Q6053.81 1254.54 6053.81 1245.81 Q6053.81 1237.06 6056.87 1232.48 Q6059.95 1227.87 6065.76 1227.87 Z" fill="#000000" fill-rule="evenodd" fill-opacity="1" /><path clip-path="url(#clip560)" d="M6090.4 1220.5 Q6093.12 1221.09 6094.65 1222.93 Q6096.19 1224.77 6096.19 1227.48 Q6096.19 1231.64 6093.33 1233.91 Q6090.47 1236.19 6085.21 1236.19 Q6083.44 1236.19 6081.56 1235.83 Q6079.69 1235.49 6077.7 1234.8 L6077.7 1231.13 Q6079.28 1232.05 6081.16 1232.52 Q6083.04 1232.99 6085.09 1232.99 Q6088.67 1232.99 6090.53 1231.58 Q6092.41 1230.17 6092.41 1227.48 Q6092.41 1225 6090.66 1223.61 Q6088.93 1222.2 6085.83 1222.2 L6082.55 1222.2 L6082.55 1219.07 L6085.98 1219.07 Q6088.78 1219.07 6090.26 1217.96 Q6091.75 1216.84 6091.75 1214.73 Q6091.75 1212.57 6090.21 1211.42 Q6088.68 1210.25 6085.83 1210.25 Q6084.27 1210.25 6082.48 1210.59 Q6080.69 1210.93 6078.55 1211.65 L6078.55 1208.26 Q6080.71 1207.66 6082.59 1207.36 Q6084.49 1207.06 6086.16 1207.06 Q6090.49 1207.06 6093.01 1209.03 Q6095.53 1210.99 6095.53 1214.33 Q6095.53 1216.67 6094.2 1218.28 Q6092.86 1219.88 6090.4 1220.5 Z" fill="#000000" fill-rule="evenodd" fill-opacity="1" /><polyline clip-path="url(#clip560)" style="stroke:#000000; stroke-linecap:butt; stroke-linejoin:round; stroke-width:4; stroke-opacity:1; fill:none" points="
  4264.09,1124.19 4264.09,94.4882 
  "/>
<polyline clip-path="url(#clip560)" style="stroke:#000000; stroke-linecap:butt; stroke-linejoin:round; stroke-width:4; stroke-opacity:1; fill:none" points="
  6097.32,1124.19 6097.32,94.4882 
  "/>
<path clip-path="url(#clip560)" d="
M6191.81 1124.19 L8025.04 1124.19 L8025.04 94.4882 L6191.81 94.4882  Z
  " fill="#ffffff" fill-rule="evenodd" fill-opacity="1"/>
<defs>
  <clipPath id="clip565">
    <rect x="6191" y="94" width="1834" height="1031"/>
  </clipPath>
</defs>
<polyline clip-path="url(#clip565)" style="stroke:#000000; stroke-linecap:butt; stroke-linejoin:round; stroke-width:2; stroke-opacity:0.1; fill:none" points="
  6232,1124.19 6232,94.4882 
  "/>
<polyline clip-path="url(#clip565)" style="stroke:#000000; stroke-linecap:butt; stroke-linejoin:round; stroke-width:2; stroke-opacity:0.1; fill:none" points="
  7110.34,1124.19 7110.34,94.4882 
  "/>
<polyline clip-path="url(#clip565)" style="stroke:#000000; stroke-linecap:butt; stroke-linejoin:round; stroke-width:2; stroke-opacity:0.1; fill:none" points="
  7988.68,1124.19 7988.68,94.4882 
  "/>
<polyline clip-path="url(#clip560)" style="stroke:#000000; stroke-linecap:butt; stroke-linejoin:round; stroke-width:4; stroke-opacity:1; fill:none" points="
  6191.81,1124.19 8025.04,1124.19 
  "/>
<polyline clip-path="url(#clip560)" style="stroke:#000000; stroke-linecap:butt; stroke-linejoin:round; stroke-width:4; stroke-opacity:1; fill:none" points="
  6191.81,94.4882 8025.04,94.4882 
  "/>
<polyline clip-path="url(#clip560)" style="stroke:#000000; stroke-linecap:butt; stroke-linejoin:round; stroke-width:4; stroke-opacity:1; fill:none" points="
  6232,1124.19 6232,1105.3 
  "/>
<polyline clip-path="url(#clip560)" style="stroke:#000000; stroke-linecap:butt; stroke-linejoin:round; stroke-width:4; stroke-opacity:1; fill:none" points="
  7110.34,1124.19 7110.34,1105.3 
  "/>
<polyline clip-path="url(#clip560)" style="stroke:#000000; stroke-linecap:butt; stroke-linejoin:round; stroke-width:4; stroke-opacity:1; fill:none" points="
  7988.68,1124.19 7988.68,1105.3 
  "/>
<path clip-path="url(#clip560)" d="M6198.32 1259.12 L6205.96 1259.12 L6205.96 1232.75 L6197.65 1234.42 L6197.65 1230.16 L6205.92 1228.49 L6210.59 1228.49 L6210.59 1259.12 L6218.23 1259.12 L6218.23 1263.05 L6198.32 1263.05 L6198.32 1259.12 Z" fill="#000000" fill-rule="evenodd" fill-opacity="1" /><path clip-path="url(#clip560)" d="M6237.68 1231.57 Q6234.07 1231.57 6232.24 1235.14 Q6230.43 1238.68 6230.43 1245.81 Q6230.43 1252.92 6232.24 1256.48 Q6234.07 1260.02 6237.68 1260.02 Q6241.31 1260.02 6243.12 1256.48 Q6244.95 1252.92 6244.95 1245.81 Q6244.95 1238.68 6243.12 1235.14 Q6241.31 1231.57 6237.68 1231.57 M6237.68 1227.87 Q6243.49 1227.87 6246.54 1232.48 Q6249.62 1237.06 6249.62 1245.81 Q6249.62 1254.54 6246.54 1259.14 Q6243.49 1263.73 6237.68 1263.73 Q6231.87 1263.73 6228.79 1259.14 Q6225.73 1254.54 6225.73 1245.81 Q6225.73 1237.06 6228.79 1232.48 Q6231.87 1227.87 6237.68 1227.87 Z" fill="#000000" fill-rule="evenodd" fill-opacity="1" /><path clip-path="url(#clip560)" d="M6250.17 1232.45 L6256.37 1232.45 L6256.37 1211.02 L6249.62 1212.38 L6249.62 1208.92 L6256.34 1207.56 L6260.13 1207.56 L6260.13 1232.45 L6266.34 1232.45 L6266.34 1235.64 L6250.17 1235.64 L6250.17 1232.45 Z" fill="#000000" fill-rule="evenodd" fill-opacity="1" /><path clip-path="url(#clip560)" d="M7076.11 1259.12 L7083.75 1259.12 L7083.75 1232.75 L7075.44 1234.42 L7075.44 1230.16 L7083.7 1228.49 L7088.38 1228.49 L7088.38 1259.12 L7096.02 1259.12 L7096.02 1263.05 L7076.11 1263.05 L7076.11 1259.12 Z" fill="#000000" fill-rule="evenodd" fill-opacity="1" /><path clip-path="url(#clip560)" d="M7115.46 1231.57 Q7111.85 1231.57 7110.02 1235.14 Q7108.22 1238.68 7108.22 1245.81 Q7108.22 1252.92 7110.02 1256.48 Q7111.85 1260.02 7115.46 1260.02 Q7119.1 1260.02 7120.9 1256.48 Q7122.73 1252.92 7122.73 1245.81 Q7122.73 1238.68 7120.9 1235.14 Q7119.1 1231.57 7115.46 1231.57 M7115.46 1227.87 Q7121.27 1227.87 7124.33 1232.48 Q7127.41 1237.06 7127.41 1245.81 Q7127.41 1254.54 7124.33 1259.14 Q7121.27 1263.73 7115.46 1263.73 Q7109.65 1263.73 7106.57 1259.14 Q7103.52 1254.54 7103.52 1245.81 Q7103.52 1237.06 7106.57 1232.48 Q7109.65 1227.87 7115.46 1227.87 Z" fill="#000000" fill-rule="evenodd" fill-opacity="1" /><path clip-path="url(#clip560)" d="M7131.98 1232.45 L7145.24 1232.45 L7145.24 1235.64 L7127.41 1235.64 L7127.41 1232.45 Q7129.57 1230.21 7133.29 1226.45 Q7137.04 1222.67 7138 1221.58 Q7139.82 1219.53 7140.54 1218.12 Q7141.27 1216.69 7141.27 1215.31 Q7141.27 1213.07 7139.69 1211.66 Q7138.13 1210.25 7135.61 1210.25 Q7133.82 1210.25 7131.83 1210.87 Q7129.85 1211.49 7127.6 1212.75 L7127.6 1208.92 Q7129.89 1208 7131.88 1207.53 Q7133.88 1207.06 7135.53 1207.06 Q7139.9 1207.06 7142.49 1209.24 Q7145.09 1211.42 7145.09 1215.07 Q7145.09 1216.8 7144.43 1218.36 Q7143.79 1219.9 7142.08 1222.01 Q7141.61 1222.55 7139.09 1225.17 Q7136.57 1227.76 7131.98 1232.45 Z" fill="#000000" fill-rule="evenodd" fill-opacity="1" /><path clip-path="url(#clip560)" d="M7954.12 1259.12 L7961.76 1259.12 L7961.76 1232.75 L7953.45 1234.42 L7953.45 1230.16 L7961.72 1228.49 L7966.39 1228.49 L7966.39 1259.12 L7974.03 1259.12 L7974.03 1263.05 L7954.12 1263.05 L7954.12 1259.12 Z" fill="#000000" fill-rule="evenodd" fill-opacity="1" /><path clip-path="url(#clip560)" d="M7993.48 1231.57 Q7989.86 1231.57 7988.04 1235.14 Q7986.23 1238.68 7986.23 1245.81 Q7986.23 1252.92 7988.04 1256.48 Q7989.86 1260.02 7993.48 1260.02 Q7997.11 1260.02 7998.92 1256.48 Q8000.74 1252.92 8000.74 1245.81 Q8000.74 1238.68 7998.92 1235.14 Q7997.11 1231.57 7993.48 1231.57 M7993.48 1227.87 Q7999.29 1227.87 8002.34 1232.48 Q8005.42 1237.06 8005.42 1245.81 Q8005.42 1254.54 8002.34 1259.14 Q7999.29 1263.73 7993.48 1263.73 Q7987.67 1263.73 7984.59 1259.14 Q7981.53 1254.54 7981.53 1245.81 Q7981.53 1237.06 7984.59 1232.48 Q7987.67 1227.87 7993.48 1227.87 Z" fill="#000000" fill-rule="evenodd" fill-opacity="1" /><path clip-path="url(#clip560)" d="M8018.12 1220.5 Q8020.84 1221.09 8022.37 1222.93 Q8023.91 1224.77 8023.91 1227.48 Q8023.91 1231.64 8021.05 1233.91 Q8018.19 1236.19 8012.92 1236.19 Q8011.16 1236.19 8009.28 1235.83 Q8007.41 1235.49 8005.42 1234.8 L8005.42 1231.13 Q8007 1232.05 8008.88 1232.52 Q8010.76 1232.99 8012.81 1232.99 Q8016.38 1232.99 8018.25 1231.58 Q8020.13 1230.17 8020.13 1227.48 Q8020.13 1225 8018.38 1223.61 Q8016.65 1222.2 8013.54 1222.2 L8010.27 1222.2 L8010.27 1219.07 L8013.7 1219.07 Q8016.5 1219.07 8017.98 1217.96 Q8019.47 1216.84 8019.47 1214.73 Q8019.47 1212.57 8017.93 1211.42 Q8016.4 1210.25 8013.54 1210.25 Q8011.98 1210.25 8010.2 1210.59 Q8008.41 1210.93 8006.27 1211.65 L8006.27 1208.26 Q8008.43 1207.66 8010.31 1207.36 Q8012.21 1207.06 8013.88 1207.06 Q8018.21 1207.06 8020.73 1209.03 Q8023.25 1210.99 8023.25 1214.33 Q8023.25 1216.67 8021.91 1218.28 Q8020.58 1219.88 8018.12 1220.5 Z" fill="#000000" fill-rule="evenodd" fill-opacity="1" /><polyline clip-path="url(#clip560)" style="stroke:#000000; stroke-linecap:butt; stroke-linejoin:round; stroke-width:4; stroke-opacity:1; fill:none" points="
  6191.81,1124.19 6191.81,94.4882 
  "/>
<polyline clip-path="url(#clip560)" style="stroke:#000000; stroke-linecap:butt; stroke-linejoin:round; stroke-width:4; stroke-opacity:1; fill:none" points="
  8025.04,1124.19 8025.04,94.4882 
  "/>
<polyline clip-path="url(#clip565)" style="stroke:#8470ff; stroke-linecap:butt; stroke-linejoin:round; stroke-width:24; stroke-opacity:0.8; fill:none" points="
  6232,479.398 6524.78,471.921 6817.56,450.284 7110.34,402.951 7403.12,357.769 7695.9,304.571 7988.68,269.405 
  "/>
<path clip-path="url(#clip565)" d="M6232 455.398 L6208 479.398 L6232 503.398 L6256 479.398 L6232 455.398 Z" fill="#8470ff" fill-rule="evenodd" fill-opacity="0.6" stroke="#000000" stroke-opacity="0.6" stroke-width="2.8"/>
<path clip-path="url(#clip565)" d="M6524.78 447.921 L6500.78 471.921 L6524.78 495.921 L6548.78 471.921 L6524.78 447.921 Z" fill="#8470ff" fill-rule="evenodd" fill-opacity="0.6" stroke="#000000" stroke-opacity="0.6" stroke-width="2.8"/>
<path clip-path="url(#clip565)" d="M6817.56 426.284 L6793.56 450.284 L6817.56 474.284 L6841.56 450.284 L6817.56 426.284 Z" fill="#8470ff" fill-rule="evenodd" fill-opacity="0.6" stroke="#000000" stroke-opacity="0.6" stroke-width="2.8"/>
<path clip-path="url(#clip565)" d="M7110.34 378.951 L7086.34 402.951 L7110.34 426.951 L7134.34 402.951 L7110.34 378.951 Z" fill="#8470ff" fill-rule="evenodd" fill-opacity="0.6" stroke="#000000" stroke-opacity="0.6" stroke-width="2.8"/>
<path clip-path="url(#clip565)" d="M7403.12 333.769 L7379.12 357.769 L7403.12 381.769 L7427.12 357.769 L7403.12 333.769 Z" fill="#8470ff" fill-rule="evenodd" fill-opacity="0.6" stroke="#000000" stroke-opacity="0.6" stroke-width="2.8"/>
<path clip-path="url(#clip565)" d="M7695.9 280.571 L7671.9 304.571 L7695.9 328.571 L7719.9 304.571 L7695.9 280.571 Z" fill="#8470ff" fill-rule="evenodd" fill-opacity="0.6" stroke="#000000" stroke-opacity="0.6" stroke-width="2.8"/>
<path clip-path="url(#clip565)" d="M7988.68 245.405 L7964.68 269.405 L7988.68 293.405 L8012.68 269.405 L7988.68 245.405 Z" fill="#8470ff" fill-rule="evenodd" fill-opacity="0.6" stroke="#000000" stroke-opacity="0.6" stroke-width="2.8"/>
<polyline clip-path="url(#clip565)" style="stroke:#00e5ee; stroke-linecap:butt; stroke-linejoin:round; stroke-width:24; stroke-opacity:0.8; fill:none" points="
  6232,476.704 6524.78,474.083 6817.56,463.88 7110.34,453.003 7403.12,449.742 7695.9,448.564 7988.68,442.507 
  "/>
<path clip-path="url(#clip565)" d="M6208 452.704 L6208 500.704 L6256 500.704 L6256 452.704 L6208 452.704 Z" fill="#00e5ee" fill-rule="evenodd" fill-opacity="0.6" stroke="#000000" stroke-opacity="0.6" stroke-width="2.8"/>
<path clip-path="url(#clip565)" d="M6500.78 450.083 L6500.78 498.083 L6548.78 498.083 L6548.78 450.083 L6500.78 450.083 Z" fill="#00e5ee" fill-rule="evenodd" fill-opacity="0.6" stroke="#000000" stroke-opacity="0.6" stroke-width="2.8"/>
<path clip-path="url(#clip565)" d="M6793.56 439.88 L6793.56 487.88 L6841.56 487.88 L6841.56 439.88 L6793.56 439.88 Z" fill="#00e5ee" fill-rule="evenodd" fill-opacity="0.6" stroke="#000000" stroke-opacity="0.6" stroke-width="2.8"/>
<path clip-path="url(#clip565)" d="M7086.34 429.003 L7086.34 477.003 L7134.34 477.003 L7134.34 429.003 L7086.34 429.003 Z" fill="#00e5ee" fill-rule="evenodd" fill-opacity="0.6" stroke="#000000" stroke-opacity="0.6" stroke-width="2.8"/>
<path clip-path="url(#clip565)" d="M7379.12 425.742 L7379.12 473.742 L7427.12 473.742 L7427.12 425.742 L7379.12 425.742 Z" fill="#00e5ee" fill-rule="evenodd" fill-opacity="0.6" stroke="#000000" stroke-opacity="0.6" stroke-width="2.8"/>
<path clip-path="url(#clip565)" d="M7671.9 424.564 L7671.9 472.564 L7719.9 472.564 L7719.9 424.564 L7671.9 424.564 Z" fill="#00e5ee" fill-rule="evenodd" fill-opacity="0.6" stroke="#000000" stroke-opacity="0.6" stroke-width="2.8"/>
<path clip-path="url(#clip565)" d="M7964.68 418.507 L7964.68 466.507 L8012.68 466.507 L8012.68 418.507 L7964.68 418.507 Z" fill="#00e5ee" fill-rule="evenodd" fill-opacity="0.6" stroke="#000000" stroke-opacity="0.6" stroke-width="2.8"/>
<polyline clip-path="url(#clip565)" style="stroke:#000080; stroke-linecap:butt; stroke-linejoin:round; stroke-width:24; stroke-opacity:0.8; fill:none" points="
  6232,537.876 6524.78,528.794 6817.56,519.028 7110.34,515.752 7403.12,502.79 7695.9,494.361 7988.68,488.799 
  "/>
<path clip-path="url(#clip565)" d="M6256 513.876 L6208 513.876 L6232 561.876 L6256 513.876 Z" fill="#000080" fill-rule="evenodd" fill-opacity="0.6" stroke="#000000" stroke-opacity="0.6" stroke-width="2.8"/>
<path clip-path="url(#clip565)" d="M6548.78 504.794 L6500.78 504.794 L6524.78 552.794 L6548.78 504.794 Z" fill="#000080" fill-rule="evenodd" fill-opacity="0.6" stroke="#000000" stroke-opacity="0.6" stroke-width="2.8"/>
<path clip-path="url(#clip565)" d="M6841.56 495.028 L6793.56 495.028 L6817.56 543.028 L6841.56 495.028 Z" fill="#000080" fill-rule="evenodd" fill-opacity="0.6" stroke="#000000" stroke-opacity="0.6" stroke-width="2.8"/>
<path clip-path="url(#clip565)" d="M7134.34 491.752 L7086.34 491.752 L7110.34 539.752 L7134.34 491.752 Z" fill="#000080" fill-rule="evenodd" fill-opacity="0.6" stroke="#000000" stroke-opacity="0.6" stroke-width="2.8"/>
<path clip-path="url(#clip565)" d="M7427.12 478.79 L7379.12 478.79 L7403.12 526.79 L7427.12 478.79 Z" fill="#000080" fill-rule="evenodd" fill-opacity="0.6" stroke="#000000" stroke-opacity="0.6" stroke-width="2.8"/>
<path clip-path="url(#clip565)" d="M7719.9 470.361 L7671.9 470.361 L7695.9 518.361 L7719.9 470.361 Z" fill="#000080" fill-rule="evenodd" fill-opacity="0.6" stroke="#000000" stroke-opacity="0.6" stroke-width="2.8"/>
<path clip-path="url(#clip565)" d="M8012.68 464.799 L7964.68 464.799 L7988.68 512.799 L8012.68 464.799 Z" fill="#000080" fill-rule="evenodd" fill-opacity="0.6" stroke="#000000" stroke-opacity="0.6" stroke-width="2.8"/>
<polyline clip-path="url(#clip565)" style="stroke:#8b008b; stroke-linecap:butt; stroke-linejoin:round; stroke-width:24; stroke-opacity:0.8; fill:none" points="
  6232,489.5 6524.78,488.635 6817.56,483.23 7110.34,474.626 7403.12,470.245 7695.9,461.21 7988.68,439.706 
  "/>
<path clip-path="url(#clip565)" d="M6232 465.5 L6226.36 481.724 L6209.17 482.084 L6222.88 492.476 L6217.89 508.916 L6232 499.1 L6246.11 508.916 L6241.12 492.476 L6254.82 482.084 L6237.64 481.724 L6232 465.5 Z" fill="#8b008b" fill-rule="evenodd" fill-opacity="0.6" stroke="#000000" stroke-opacity="0.6" stroke-width="2.8"/>
<path clip-path="url(#clip565)" d="M6524.78 464.635 L6519.14 480.859 L6501.95 481.219 L6515.66 491.611 L6510.67 508.051 L6524.78 498.235 L6538.89 508.051 L6533.9 491.611 L6547.6 481.219 L6530.42 480.859 L6524.78 464.635 Z" fill="#8b008b" fill-rule="evenodd" fill-opacity="0.6" stroke="#000000" stroke-opacity="0.6" stroke-width="2.8"/>
<path clip-path="url(#clip565)" d="M6817.56 459.23 L6811.92 475.454 L6794.73 475.814 L6808.44 486.206 L6803.45 502.646 L6817.56 492.83 L6831.67 502.646 L6826.68 486.206 L6840.38 475.814 L6823.2 475.454 L6817.56 459.23 Z" fill="#8b008b" fill-rule="evenodd" fill-opacity="0.6" stroke="#000000" stroke-opacity="0.6" stroke-width="2.8"/>
<path clip-path="url(#clip565)" d="M7110.34 450.626 L7104.7 466.85 L7087.51 467.21 L7101.22 477.602 L7096.23 494.042 L7110.34 484.226 L7124.45 494.042 L7119.46 477.602 L7133.16 467.21 L7115.98 466.85 L7110.34 450.626 Z" fill="#8b008b" fill-rule="evenodd" fill-opacity="0.6" stroke="#000000" stroke-opacity="0.6" stroke-width="2.8"/>
<path clip-path="url(#clip565)" d="M7403.12 446.245 L7397.48 462.469 L7380.3 462.829 L7394 473.221 L7389.01 489.661 L7403.12 479.845 L7417.23 489.661 L7412.24 473.221 L7425.94 462.829 L7408.76 462.469 L7403.12 446.245 Z" fill="#8b008b" fill-rule="evenodd" fill-opacity="0.6" stroke="#000000" stroke-opacity="0.6" stroke-width="2.8"/>
<path clip-path="url(#clip565)" d="M7695.9 437.21 L7690.26 453.434 L7673.08 453.794 L7686.78 464.186 L7681.79 480.626 L7695.9 470.81 L7710.01 480.626 L7705.02 464.186 L7718.72 453.794 L7701.54 453.434 L7695.9 437.21 Z" fill="#8b008b" fill-rule="evenodd" fill-opacity="0.6" stroke="#000000" stroke-opacity="0.6" stroke-width="2.8"/>
<path clip-path="url(#clip565)" d="M7988.68 415.706 L7983.04 431.93 L7965.86 432.29 L7979.56 442.682 L7974.57 459.122 L7988.68 449.306 L8002.79 459.122 L7997.8 442.682 L8011.5 432.29 L7994.32 431.93 L7988.68 415.706 Z" fill="#8b008b" fill-rule="evenodd" fill-opacity="0.6" stroke="#000000" stroke-opacity="0.6" stroke-width="2.8"/>
<polyline clip-path="url(#clip565)" style="stroke:#551a8b; stroke-linecap:butt; stroke-linejoin:round; stroke-width:24; stroke-opacity:0.8; fill:none" points="
  6232,259.145 6524.78,234.117 6817.56,229.744 7110.34,226.474 7403.12,219.961 7695.9,219.651 7988.68,213.609 
  "/>
<path clip-path="url(#clip565)" d="M6232 235.145 L6213.23 244.193 L6208.6 264.497 L6221.58 280.769 L6242.41 280.769 L6255.4 264.497 L6250.77 244.193 Z" fill="#551a8b" fill-rule="evenodd" fill-opacity="0.6" stroke="#000000" stroke-opacity="0.6" stroke-width="2.8"/>
<path clip-path="url(#clip565)" d="M6524.78 210.117 L6506.01 219.165 L6501.38 239.469 L6514.36 255.741 L6535.19 255.741 L6548.18 239.469 L6543.55 219.165 Z" fill="#551a8b" fill-rule="evenodd" fill-opacity="0.6" stroke="#000000" stroke-opacity="0.6" stroke-width="2.8"/>
<path clip-path="url(#clip565)" d="M6817.56 205.744 L6798.79 214.792 L6794.16 235.096 L6807.14 251.368 L6827.97 251.368 L6840.96 235.096 L6836.33 214.792 Z" fill="#551a8b" fill-rule="evenodd" fill-opacity="0.6" stroke="#000000" stroke-opacity="0.6" stroke-width="2.8"/>
<path clip-path="url(#clip565)" d="M7110.34 202.474 L7091.57 211.522 L7086.94 231.826 L7099.92 248.098 L7120.75 248.098 L7133.74 231.826 L7129.11 211.522 Z" fill="#551a8b" fill-rule="evenodd" fill-opacity="0.6" stroke="#000000" stroke-opacity="0.6" stroke-width="2.8"/>
<path clip-path="url(#clip565)" d="M7403.12 195.961 L7384.35 205.009 L7379.72 225.313 L7392.7 241.585 L7413.54 241.585 L7426.52 225.313 L7421.89 205.009 Z" fill="#551a8b" fill-rule="evenodd" fill-opacity="0.6" stroke="#000000" stroke-opacity="0.6" stroke-width="2.8"/>
<path clip-path="url(#clip565)" d="M7695.9 195.651 L7677.13 204.699 L7672.5 225.003 L7685.48 241.275 L7706.32 241.275 L7719.3 225.003 L7714.67 204.699 Z" fill="#551a8b" fill-rule="evenodd" fill-opacity="0.6" stroke="#000000" stroke-opacity="0.6" stroke-width="2.8"/>
<path clip-path="url(#clip565)" d="M7988.68 189.609 L7969.91 198.657 L7965.28 218.961 L7978.26 235.233 L7999.1 235.233 L8012.08 218.961 L8007.45 198.657 Z" fill="#551a8b" fill-rule="evenodd" fill-opacity="0.6" stroke="#000000" stroke-opacity="0.6" stroke-width="2.8"/>
<path clip-path="url(#clip560)" d="
M8119.53 1124.19 L9952.76 1124.19 L9952.76 94.4882 L8119.53 94.4882  Z
  " fill="#ffffff" fill-rule="evenodd" fill-opacity="1"/>
<defs>
  <clipPath id="clip566">
    <rect x="8119" y="94" width="1834" height="1031"/>
  </clipPath>
</defs>
<polyline clip-path="url(#clip566)" style="stroke:#000000; stroke-linecap:butt; stroke-linejoin:round; stroke-width:2; stroke-opacity:0.1; fill:none" points="
  8159.72,1124.19 8159.72,94.4882 
  "/>
<polyline clip-path="url(#clip566)" style="stroke:#000000; stroke-linecap:butt; stroke-linejoin:round; stroke-width:2; stroke-opacity:0.1; fill:none" points="
  9038.06,1124.19 9038.06,94.4882 
  "/>
<polyline clip-path="url(#clip566)" style="stroke:#000000; stroke-linecap:butt; stroke-linejoin:round; stroke-width:2; stroke-opacity:0.1; fill:none" points="
  9916.4,1124.19 9916.4,94.4882 
  "/>
<polyline clip-path="url(#clip560)" style="stroke:#000000; stroke-linecap:butt; stroke-linejoin:round; stroke-width:4; stroke-opacity:1; fill:none" points="
  8119.53,1124.19 9952.76,1124.19 
  "/>
<polyline clip-path="url(#clip560)" style="stroke:#000000; stroke-linecap:butt; stroke-linejoin:round; stroke-width:4; stroke-opacity:1; fill:none" points="
  8119.53,94.4882 9952.76,94.4882 
  "/>
<polyline clip-path="url(#clip560)" style="stroke:#000000; stroke-linecap:butt; stroke-linejoin:round; stroke-width:4; stroke-opacity:1; fill:none" points="
  8159.72,1124.19 8159.72,1105.3 
  "/>
<polyline clip-path="url(#clip560)" style="stroke:#000000; stroke-linecap:butt; stroke-linejoin:round; stroke-width:4; stroke-opacity:1; fill:none" points="
  9038.06,1124.19 9038.06,1105.3 
  "/>
<polyline clip-path="url(#clip560)" style="stroke:#000000; stroke-linecap:butt; stroke-linejoin:round; stroke-width:4; stroke-opacity:1; fill:none" points="
  9916.4,1124.19 9916.4,1105.3 
  "/>
<path clip-path="url(#clip560)" d="M8126.04 1259.12 L8133.68 1259.12 L8133.68 1232.75 L8125.37 1234.42 L8125.37 1230.16 L8133.64 1228.49 L8138.31 1228.49 L8138.31 1259.12 L8145.95 1259.12 L8145.95 1263.05 L8126.04 1263.05 L8126.04 1259.12 Z" fill="#000000" fill-rule="evenodd" fill-opacity="1" /><path clip-path="url(#clip560)" d="M8165.4 1231.57 Q8161.78 1231.57 8159.96 1235.14 Q8158.15 1238.68 8158.15 1245.81 Q8158.15 1252.92 8159.96 1256.48 Q8161.78 1260.02 8165.4 1260.02 Q8169.03 1260.02 8170.84 1256.48 Q8172.66 1252.92 8172.66 1245.81 Q8172.66 1238.68 8170.84 1235.14 Q8169.03 1231.57 8165.4 1231.57 M8165.4 1227.87 Q8171.21 1227.87 8174.26 1232.48 Q8177.34 1237.06 8177.34 1245.81 Q8177.34 1254.54 8174.26 1259.14 Q8171.21 1263.73 8165.4 1263.73 Q8159.59 1263.73 8156.51 1259.14 Q8153.45 1254.54 8153.45 1245.81 Q8153.45 1237.06 8156.51 1232.48 Q8159.59 1227.87 8165.4 1227.87 Z" fill="#000000" fill-rule="evenodd" fill-opacity="1" /><path clip-path="url(#clip560)" d="M8177.89 1232.45 L8184.09 1232.45 L8184.09 1211.02 L8177.34 1212.38 L8177.34 1208.92 L8184.05 1207.56 L8187.85 1207.56 L8187.85 1232.45 L8194.06 1232.45 L8194.06 1235.64 L8177.89 1235.64 L8177.89 1232.45 Z" fill="#000000" fill-rule="evenodd" fill-opacity="1" /><path clip-path="url(#clip560)" d="M9003.83 1259.12 L9011.47 1259.12 L9011.47 1232.75 L9003.16 1234.42 L9003.16 1230.16 L9011.42 1228.49 L9016.1 1228.49 L9016.1 1259.12 L9023.74 1259.12 L9023.74 1263.05 L9003.83 1263.05 L9003.83 1259.12 Z" fill="#000000" fill-rule="evenodd" fill-opacity="1" /><path clip-path="url(#clip560)" d="M9043.18 1231.57 Q9039.57 1231.57 9037.74 1235.14 Q9035.94 1238.68 9035.94 1245.81 Q9035.94 1252.92 9037.74 1256.48 Q9039.57 1260.02 9043.18 1260.02 Q9046.82 1260.02 9048.62 1256.48 Q9050.45 1252.92 9050.45 1245.81 Q9050.45 1238.68 9048.62 1235.14 Q9046.82 1231.57 9043.18 1231.57 M9043.18 1227.87 Q9048.99 1227.87 9052.05 1232.48 Q9055.13 1237.06 9055.13 1245.81 Q9055.13 1254.54 9052.05 1259.14 Q9048.99 1263.73 9043.18 1263.73 Q9037.37 1263.73 9034.29 1259.14 Q9031.24 1254.54 9031.24 1245.81 Q9031.24 1237.06 9034.29 1232.48 Q9037.37 1227.87 9043.18 1227.87 Z" fill="#000000" fill-rule="evenodd" fill-opacity="1" /><path clip-path="url(#clip560)" d="M9059.7 1232.45 L9072.96 1232.45 L9072.96 1235.64 L9055.13 1235.64 L9055.13 1232.45 Q9057.29 1230.21 9061.01 1226.45 Q9064.76 1222.67 9065.72 1221.58 Q9067.54 1219.53 9068.25 1218.12 Q9068.99 1216.69 9068.99 1215.31 Q9068.99 1213.07 9067.41 1211.66 Q9065.85 1210.25 9063.33 1210.25 Q9061.54 1210.25 9059.55 1210.87 Q9057.57 1211.49 9055.31 1212.75 L9055.31 1208.92 Q9057.61 1208 9059.6 1207.53 Q9061.6 1207.06 9063.25 1207.06 Q9067.61 1207.06 9070.21 1209.24 Q9072.81 1211.42 9072.81 1215.07 Q9072.81 1216.8 9072.15 1218.36 Q9071.51 1219.9 9069.8 1222.01 Q9069.33 1222.55 9066.81 1225.17 Q9064.29 1227.76 9059.7 1232.45 Z" fill="#000000" fill-rule="evenodd" fill-opacity="1" /><path clip-path="url(#clip560)" d="M9881.84 1259.12 L9889.48 1259.12 L9889.48 1232.75 L9881.17 1234.42 L9881.17 1230.16 L9889.44 1228.49 L9894.11 1228.49 L9894.11 1259.12 L9901.75 1259.12 L9901.75 1263.05 L9881.84 1263.05 L9881.84 1259.12 Z" fill="#000000" fill-rule="evenodd" fill-opacity="1" /><path clip-path="url(#clip560)" d="M9921.19 1231.57 Q9917.58 1231.57 9915.75 1235.14 Q9913.95 1238.68 9913.95 1245.81 Q9913.95 1252.92 9915.75 1256.48 Q9917.58 1260.02 9921.19 1260.02 Q9924.83 1260.02 9926.63 1256.48 Q9928.46 1252.92 9928.46 1245.81 Q9928.46 1238.68 9926.63 1235.14 Q9924.83 1231.57 9921.19 1231.57 M9921.19 1227.87 Q9927 1227.87 9930.06 1232.48 Q9933.14 1237.06 9933.14 1245.81 Q9933.14 1254.54 9930.06 1259.14 Q9927 1263.73 9921.19 1263.73 Q9915.38 1263.73 9912.31 1259.14 Q9909.25 1254.54 9909.25 1245.81 Q9909.25 1237.06 9912.31 1232.48 Q9915.38 1227.87 9921.19 1227.87 Z" fill="#000000" fill-rule="evenodd" fill-opacity="1" /><path clip-path="url(#clip560)" d="M9945.83 1220.5 Q9948.56 1221.09 9950.08 1222.93 Q9951.63 1224.77 9951.63 1227.48 Q9951.63 1231.64 9948.77 1233.91 Q9945.91 1236.19 9940.64 1236.19 Q9938.88 1236.19 9936.99 1235.83 Q9935.13 1235.49 9933.14 1234.8 L9933.14 1231.13 Q9934.72 1232.05 9936.6 1232.52 Q9938.48 1232.99 9940.53 1232.99 Q9944.1 1232.99 9945.97 1231.58 Q9947.85 1230.17 9947.85 1227.48 Q9947.85 1225 9946.1 1223.61 Q9944.37 1222.2 9941.26 1222.2 L9937.99 1222.2 L9937.99 1219.07 L9941.41 1219.07 Q9944.22 1219.07 9945.7 1217.96 Q9947.19 1216.84 9947.19 1214.73 Q9947.19 1212.57 9945.65 1211.42 Q9944.12 1210.25 9941.26 1210.25 Q9939.7 1210.25 9937.92 1210.59 Q9936.13 1210.93 9933.98 1211.65 L9933.98 1208.26 Q9936.15 1207.66 9938.03 1207.36 Q9939.93 1207.06 9941.6 1207.06 Q9945.93 1207.06 9948.45 1209.03 Q9950.97 1210.99 9950.97 1214.33 Q9950.97 1216.67 9949.63 1218.28 Q9948.3 1219.88 9945.83 1220.5 Z" fill="#000000" fill-rule="evenodd" fill-opacity="1" /><polyline clip-path="url(#clip560)" style="stroke:#000000; stroke-linecap:butt; stroke-linejoin:round; stroke-width:4; stroke-opacity:1; fill:none" points="
  8119.53,1124.19 8119.53,94.4882 
  "/>
<polyline clip-path="url(#clip560)" style="stroke:#000000; stroke-linecap:butt; stroke-linejoin:round; stroke-width:4; stroke-opacity:1; fill:none" points="
  9952.76,1124.19 9952.76,94.4882 
  "/>
<polyline clip-path="url(#clip566)" style="stroke:#00ff00; stroke-linecap:butt; stroke-linejoin:round; stroke-width:24; stroke-opacity:0.8; fill:none" points="
  8159.72,372.698 8452.5,339.859 8745.28,326.236 9038.06,307.588 9330.84,291.745 9623.62,260.188 9916.4,278.414 
  "/>
<path clip-path="url(#clip566)" d="M8159.72 348.698 L8136.89 365.282 L8145.6 392.114 L8173.83 392.114 L8182.54 365.282 Z" fill="#00ff00" fill-rule="evenodd" fill-opacity="0.6" stroke="#000000" stroke-opacity="0.6" stroke-width="2.8"/>
<path clip-path="url(#clip566)" d="M8452.5 315.859 L8429.67 332.443 L8438.38 359.275 L8466.61 359.275 L8475.32 332.443 Z" fill="#00ff00" fill-rule="evenodd" fill-opacity="0.6" stroke="#000000" stroke-opacity="0.6" stroke-width="2.8"/>
<path clip-path="url(#clip566)" d="M8745.28 302.236 L8722.45 318.82 L8731.17 345.652 L8759.39 345.652 L8768.1 318.82 Z" fill="#00ff00" fill-rule="evenodd" fill-opacity="0.6" stroke="#000000" stroke-opacity="0.6" stroke-width="2.8"/>
<path clip-path="url(#clip566)" d="M9038.06 283.588 L9015.23 300.172 L9023.95 327.004 L9052.17 327.004 L9060.88 300.172 Z" fill="#00ff00" fill-rule="evenodd" fill-opacity="0.6" stroke="#000000" stroke-opacity="0.6" stroke-width="2.8"/>
<path clip-path="url(#clip566)" d="M9330.84 267.745 L9308.01 284.329 L9316.73 311.161 L9344.95 311.161 L9353.66 284.329 Z" fill="#00ff00" fill-rule="evenodd" fill-opacity="0.6" stroke="#000000" stroke-opacity="0.6" stroke-width="2.8"/>
<path clip-path="url(#clip566)" d="M9623.62 236.188 L9600.79 252.772 L9609.51 279.604 L9637.73 279.604 L9646.44 252.772 Z" fill="#00ff00" fill-rule="evenodd" fill-opacity="0.6" stroke="#000000" stroke-opacity="0.6" stroke-width="2.8"/>
<path clip-path="url(#clip566)" d="M9916.4 254.414 L9893.57 270.998 L9902.29 297.83 L9930.51 297.83 L9939.22 270.998 Z" fill="#00ff00" fill-rule="evenodd" fill-opacity="0.6" stroke="#000000" stroke-opacity="0.6" stroke-width="2.8"/>
<polyline clip-path="url(#clip566)" style="stroke:#008000; stroke-linecap:butt; stroke-linejoin:round; stroke-width:24; stroke-opacity:0.8; fill:none" points="
  8159.72,526.562 8452.5,527.102 8745.28,523.565 9038.06,513.626 9330.84,479.489 9623.62,477.546 9916.4,459.755 
  "/>
<path clip-path="url(#clip566)" d="M8159.72 550.562 L8142.75 543.53 L8135.72 526.562 L8142.75 509.594 L8159.72 502.562 L8176.68 509.594 L8183.72 526.562 L8176.68 543.53 Z" fill="#008000" fill-rule="evenodd" fill-opacity="0.6" stroke="#000000" stroke-opacity="0.6" stroke-width="2.8"/>
<path clip-path="url(#clip566)" d="M8452.5 551.102 L8435.53 544.07 L8428.5 527.102 L8435.53 510.134 L8452.5 503.102 L8469.46 510.134 L8476.5 527.102 L8469.46 544.07 Z" fill="#008000" fill-rule="evenodd" fill-opacity="0.6" stroke="#000000" stroke-opacity="0.6" stroke-width="2.8"/>
<path clip-path="url(#clip566)" d="M8745.28 547.565 L8728.31 540.533 L8721.28 523.565 L8728.31 506.597 L8745.28 499.565 L8762.25 506.597 L8769.28 523.565 L8762.25 540.533 Z" fill="#008000" fill-rule="evenodd" fill-opacity="0.6" stroke="#000000" stroke-opacity="0.6" stroke-width="2.8"/>
<path clip-path="url(#clip566)" d="M9038.06 537.626 L9021.09 530.594 L9014.06 513.626 L9021.09 496.658 L9038.06 489.626 L9055.03 496.658 L9062.06 513.626 L9055.03 530.594 Z" fill="#008000" fill-rule="evenodd" fill-opacity="0.6" stroke="#000000" stroke-opacity="0.6" stroke-width="2.8"/>
<path clip-path="url(#clip566)" d="M9330.84 503.489 L9313.87 496.457 L9306.84 479.489 L9313.87 462.521 L9330.84 455.489 L9347.81 462.521 L9354.84 479.489 L9347.81 496.457 Z" fill="#008000" fill-rule="evenodd" fill-opacity="0.6" stroke="#000000" stroke-opacity="0.6" stroke-width="2.8"/>
<path clip-path="url(#clip566)" d="M9623.62 501.546 L9606.65 494.514 L9599.62 477.546 L9606.65 460.578 L9623.62 453.546 L9640.59 460.578 L9647.62 477.546 L9640.59 494.514 Z" fill="#008000" fill-rule="evenodd" fill-opacity="0.6" stroke="#000000" stroke-opacity="0.6" stroke-width="2.8"/>
<path clip-path="url(#clip566)" d="M9916.4 483.755 L9899.43 476.723 L9892.4 459.755 L9899.43 442.787 L9916.4 435.755 L9933.37 442.787 L9940.4 459.755 L9933.37 476.723 Z" fill="#008000" fill-rule="evenodd" fill-opacity="0.6" stroke="#000000" stroke-opacity="0.6" stroke-width="2.8"/>
<polyline clip-path="url(#clip566)" style="stroke:#ffa500; stroke-linecap:butt; stroke-linejoin:round; stroke-width:24; stroke-opacity:0.8; fill:none" points="
  8159.72,168.313 8452.5,150.338 8745.28,137.547 9038.06,116.034 
  "/>
<path clip-path="url(#clip566)" d="M8135.72 144.313 L8135.72 192.313 L8183.72 192.313 L8183.72 144.313 L8135.72 144.313 Z" fill="#ffa500" fill-rule="evenodd" fill-opacity="0.6" stroke="#000000" stroke-opacity="0.6" stroke-width="2.8"/>
<path clip-path="url(#clip566)" d="M8428.5 126.338 L8428.5 174.338 L8476.5 174.338 L8476.5 126.338 L8428.5 126.338 Z" fill="#ffa500" fill-rule="evenodd" fill-opacity="0.6" stroke="#000000" stroke-opacity="0.6" stroke-width="2.8"/>
<path clip-path="url(#clip566)" d="M8721.28 113.547 L8721.28 161.547 L8769.28 161.547 L8769.28 113.547 L8721.28 113.547 Z" fill="#ffa500" fill-rule="evenodd" fill-opacity="0.6" stroke="#000000" stroke-opacity="0.6" stroke-width="2.8"/>
<path clip-path="url(#clip566)" d="M9014.06 92.0343 L9014.06 140.034 L9062.06 140.034 L9062.06 92.0343 L9014.06 92.0343 Z" fill="#ffa500" fill-rule="evenodd" fill-opacity="0.6" stroke="#000000" stroke-opacity="0.6" stroke-width="2.8"/>
<polyline clip-path="url(#clip566)" style="stroke:#ff0000; stroke-linecap:butt; stroke-linejoin:round; stroke-width:24; stroke-opacity:0.8; fill:none" points="
  8159.72,535.496 8452.5,546.282 8745.28,534.279 9038.06,518.552 9330.84,511.927 9623.62,516.106 9916.4,508.698 
  "/>
<path clip-path="url(#clip566)" d="M8159.72 511.496 L8135.72 559.496 L8183.72 559.496 L8159.72 511.496 Z" fill="#ff0000" fill-rule="evenodd" fill-opacity="0.6" stroke="#000000" stroke-opacity="0.6" stroke-width="2.8"/>
<path clip-path="url(#clip566)" d="M8452.5 522.282 L8428.5 570.282 L8476.5 570.282 L8452.5 522.282 Z" fill="#ff0000" fill-rule="evenodd" fill-opacity="0.6" stroke="#000000" stroke-opacity="0.6" stroke-width="2.8"/>
<path clip-path="url(#clip566)" d="M8745.28 510.279 L8721.28 558.279 L8769.28 558.279 L8745.28 510.279 Z" fill="#ff0000" fill-rule="evenodd" fill-opacity="0.6" stroke="#000000" stroke-opacity="0.6" stroke-width="2.8"/>
<path clip-path="url(#clip566)" d="M9038.06 494.552 L9014.06 542.552 L9062.06 542.552 L9038.06 494.552 Z" fill="#ff0000" fill-rule="evenodd" fill-opacity="0.6" stroke="#000000" stroke-opacity="0.6" stroke-width="2.8"/>
<path clip-path="url(#clip566)" d="M9330.84 487.927 L9306.84 535.927 L9354.84 535.927 L9330.84 487.927 Z" fill="#ff0000" fill-rule="evenodd" fill-opacity="0.6" stroke="#000000" stroke-opacity="0.6" stroke-width="2.8"/>
<path clip-path="url(#clip566)" d="M9623.62 492.106 L9599.62 540.106 L9647.62 540.106 L9623.62 492.106 Z" fill="#ff0000" fill-rule="evenodd" fill-opacity="0.6" stroke="#000000" stroke-opacity="0.6" stroke-width="2.8"/>
<path clip-path="url(#clip566)" d="M9916.4 484.698 L9892.4 532.698 L9940.4 532.698 L9916.4 484.698 Z" fill="#ff0000" fill-rule="evenodd" fill-opacity="0.6" stroke="#000000" stroke-opacity="0.6" stroke-width="2.8"/>
</svg>
